<svg xmlns="http://www.w3.org/2000/svg" width="614" height="151"><path fill="#f4f7fb" d="M0 0h614v151H0Z"/><path fill="#f5f5fa" d="M304.666 34.87c1.21 0 2.42-.01 3.67-.01 1.32 0 2.64 0 4 .01 1.36 0 2.72-.01 4.08-.01 2.85 0 5.7 0 8.56.01h10.97q4.215-.015 8.43 0c2 0 4.01-.01 6.01-.01.61 0 .61 0 3.69.01h3.25c2.67.13 2.67.13 5.67 1.13v9l3 1v3h-5v5h2l-1-4 3 1c.69 2.06.69 2.06 1 4-3.06 2.97-4.46 3.96-8.81 4.25-1.05-.08-2.1-.17-3.19-.25.09.93.17 1.86.25 2.81-.25 3.19-.25 3.19-2.12 5.06-2.13 1.13-2.13 1.13-4.13 1.13v2h-2v2h-3v4c-.33.16-.33.16-2 1-.62 2.06-.62 2.06-1 4h4c-.12 3.25-.12 3.25-1 7-2.95 2.44-5.37 3.79-9 5l-1 2c1.08-.31 2.15-.62 3.25-.94l3.75-1.06c.77-.25 1.53-.5 2.32-.75.55-.08 1.11-.17 1.68-.25l2 2c4 0 4 0 5.75-1.5.21-.25.21-.25 1.25-1.5l1 4 3-1c-.06-.97-.12-1.94-.18-2.94.01-4.55 1-9.05 3.18-13.06 1.32-.69 2.66-1.36 4-2l1-3h2l1-5h2l1-3c1.79-.84 1.79-.84 4.07-1.5 3.04-.9 5.66-1.84 8.56-3.19 8.13-3.03 17.71-2.34 25.75.56 6.27 2.99 10.83 7.33 14.62 13.13.92 2.59 1.06 4.22 1 7h2c.63 12.71.55 21.71-8.12 31.75-.51.55-1.02 1.09-1.55 1.66-1.33 1.59-1.33 1.59-2.7 4.84-1.94 3.28-3.71 3.93-7.23 5.16-4.34 1.07-8.64.98-13.08.9-.46 0-.46 0-2.8.01-6.94-.05-11.73-1.35-17.52-5.32v-2h-3v-3h-2v-2h-2l-1 4h-3v5c-2.73 1.37-4.91 1.13-7.97 1.14-1.26.01-2.51.02-3.81.02-1.37.01-2.75.01-4.12.01-1.41 0-2.81 0-4.22.01-2.94 0-5.89.01-8.83.0006054687499954525-3.78 0-7.56.02-11.34.04-2.9.01-5.8.01-8.71.01-1.39 0-2.78 0-4.18.01-1.94.01-3.89.01-5.84.009-.55 0-.55 0-3.36.01-2.62-.25-2.62-.25-4.62-2.25-.3-2.57-.51-5.05-.62-7.63l-.12-2.14c-.09-1.74-.17-3.49-.26-5.23l3-1v-2h-2v-8h-8c.11.82.21 1.65.32 2.5-.38 4.18-1.78 6.28-4.12 9.67-1.2 1.83-1.2 1.83-2.2 4.83h-2c-.1.85-.2 1.69-.31 2.56-.69 3.44-.69 3.44-3.69 10.44l-17-1c-.42-2.57-.84-5.14-1.27-7.72-.75-3.39-1.77-6.57-2.9-9.86-1.41-4.14-2.7-8.31-4.01-12.48-.28-.87-.55-1.73-.83-2.63-.66-2.1-1.32-4.21-1.99-6.31-3.84 5.77-5.12 12.33-6.5 19.06-1.23 6-2.75 11.45-5.5 16.94h-17c-.96-2.98-1.92-5.96-2.87-8.94l-.82-2.52c-1.52-4.78-2.78-9.53-3.82-14.44-.73-3.18-1.79-6.21-2.86-9.29-6.63-19.39-6.63-19.39-6.63-25.81h17l.88 4.12c.6 2.7 1.25 5.25 2.12 7.88.82 2.43 1.37 4.69 1.88 7.19 1.16 5.47 3.12 10.6 5.12 15.81l1-4h2c-.02-.57-.02-.57-.14-3.43 0-4.86 1.14-9.13 2.52-13.76l.67-2.36c1.14-3.95 2.42-7.62 3.95-11.45h17l2 7c.5 1.09.99 2.19 1.5 3.31 1.52 3.73 2.31 7.17 3.03 11.11.71 3.89 1.6 7.73 2.47 11.58h3c.06-.28.06-.28.34-1.69.8-3.84 1.66-7.29 3.16-10.94 2.08-5.12 2.35-10.62 2.88-16.08.65-3.45.94-4.23 3.62-6.29 2.96-.24 5.68-.33 8.63-.25.79 0 1.58.01 2.39.02 5.83.08 5.83.08 6.98 1.23 1.33.21 2.67.37 4 .5 3.89.39 3.89.39 5 1.5.14 3.66.17 6.51-1 10h-4v-7h-3c-.16 1.65-.16 1.65-1 10h-2v2h2c.17 1.81.17 1.81 1 11-.49.16-.49.16-3 1v5l5-1-1 6 3-2c.69-3.63.69-3.63 1-7l2 1v4h5v-5l3-1 1-3h2v-3h3v-3h3l1-5h2v-3h5c.26-.56.53-1.12.79-1.7 1.35-2.56 2.91-4.82 4.59-7.18 2.03-2.86 4.04-5.73 5.94-8.68 1.68-2.44 1.68-2.44 3.68-3.44l1-3h-46c-1.19-2.38-1.13-3.92-1.12-6.56 0-.41 0-.41-.01-2.44.28-4.19 3.26-3.13 6.8-3.13"/><path fill="#f6f9fa" d="M101 28h2c.16.66.16.66 1 4 .64-.16 1.28-.31 1.93-.47.83-.2 1.66-.39 2.51-.59.82-.2 1.64-.4 2.49-.6.34-.06.34-.06 2.07-.34l1 1c1.16.16 2.31.33 3.5.5 3.5.5 3.5.5 4.5 1.5.1 2.74.13 5.45.11 8.19v2.6c0 2.85 0 5.71-.01 8.56 0 1.97-.01 3.94-.01 5.91 0 5.2-.01 10.4-.02 15.6-.01 5.3-.02 10.61-.02 15.91-.01 10.41-.03 20.82-.05 31.23-3.1.06-6.21.09-9.31.12l-2.67.06c-.85 0-1.7.01-2.57.02l-2.37.03C103 121 103 121 100 119c-.43-2.43-.43-2.43-.51-5.45-.04-1.07-.07-2.15-.11-3.26-.02-1.12-.04-2.25-.07-3.41-.03-1.14-.07-2.28-.1-3.45Q99.09 99.215 99 95l-7-1-1-5-1 1c-2.15.09-4.29.11-6.44.1-1.31-.01-2.61-.01-3.96-.01l-4.16-.03c-1.4 0-2.79-.01-4.18-.01-3.42-.01-6.84-.03-10.26-.05v10h2c-.16.95-.33 1.9-.5 2.88-.69 4.7-.59 9.38-.5 14.12l2 1-1 4h-2v2c-5.61 1.02-10.76.96-16.44.56-.82-.05-1.65-.1-2.5-.16-2.02-.12-4.04-.26-6.06-.4v-2h-2V36h2l1-4 58 1c.16.33.16.33 1 2 2.06.62 2.06.62 4 1-.16-.66-.16-.66-1-4l2-1Z"/><path fill="#cd5e02" d="M184.293 63.477c7.42 5.3 11.8 11.2 13.43 20.24.99 8.14.48 16.04-3.35 23.41-5.54 6.71-11.29 10.75-19.37 13.87-.33.17-.33.17-2 1-2.91.16-5.78.23-8.69.25-.79.02-1.58.04-2.4.07-8.36.05-13.84-2.63-19.99-8.3-8.32-8.72-10.17-16.63-10.09-28.38.17-2.64.17-2.64 1.17-5.64h2c.07-.59.15-1.18.22-1.79.72-4.33 1.33-7.36 4.78-10.27 3-1.94 3-1.94 5-1.94v-2c8.93-8.93 29.6-6.76 39.29-.52"/><path fill="#ca5f08" d="M202 60h17l.88 4.12c.59 2.7 1.24 5.25 2.12 7.88.81 2.43 1.37 4.69 1.88 7.19C225.03 84.66 227 89.79 229 95l1-4h2c-.02-.57-.02-.57-.15-3.43 0-4.86 1.14-9.13 2.53-13.76l.67-2.36c1.13-3.95 2.42-7.62 3.95-11.45h17l2 7c.5 1.09.99 2.19 1.5 3.31 1.52 3.73 2.31 7.17 3.03 11.11.71 3.89 1.6 7.73 2.47 11.58h3c.05-.28.05-.28.33-1.69.8-3.83 1.65-7.49 3.11-11.12 1.74-4.38 2.76-8.87 3.81-13.46C276 64 276 64 278 60h16c-.97 7.8-2.77 14.52-5.61 21.78-3.77 9.67-7.29 19.62-8.84 29.91-.77 3.23-2.24 6.26-3.55 9.31h-17c-1.74-4.97-3.26-9.89-4.5-15s-2.76-10.04-4.5-15c-.67-2-1.33-4-2-6-3.85 5.77-5.12 12.33-6.5 19.06-1.23 6-2.75 11.45-5.5 16.94h-17l-2.88-8.94c-.26-.83-.53-1.66-.81-2.52-1.53-4.78-2.79-9.53-3.83-14.44-.73-3.18-1.78-6.21-2.86-9.29C202 66.42 202 66.42 202 60"/><path fill="#e57152" d="M415 64c4.52 3.86 9.14 8.01 10.06 14.12L425 81h2c.65 13.18.18 21.79-8.38 32.38-5.55 5.97-11.23 8.38-19.36 8.82-1.38.02-2.76.04-4.14.05l-2.06.06c-7.49.06-13.09-2.8-19.06-7.31-8.39-9.35-9.84-18.8-9.19-30.94.7-7.54 3.63-13.58 9.26-18.63 11.84-8.78 28.47-9.39 40.93-1.43"/><path fill="#d25f01" d="M37 36h58v16H55l1 19c5.28.16 5.28.16 32 1v14H56v35H37Z"/><path fill="#e8714d" d="M548 62v2c.56.21 1.11.41 1.69.62 4.6 2.74 7.23 6.6 9.12 11.5C560 81 560 81 560 93h-47c3.85 12.85 3.85 12.85 9 17 5.7 2.47 12.21 3.18 18.21 1.31 4.89-2.18 7.24-4.64 9.79-9.31l10 1c-.34 5.4-3.43 9.17-7 13-8.31 6.48-18.9 7.06-29 6-3.65-1.26-6.74-2.95-10-5-.34-.13-.34-.13-2.04-.77-3-1.89-4.03-4.49-5.65-7.61l-1.82-3.46c-3.87-8.21-3.65-18.28-2.49-27.16 2.64-7.33 8-13.49 15-17 9.5-3.2 21.86-3.57 31 1"/><path fill="#f1f5f9" d="M555 24h4v8l2 1c.45-.15.45-.15 2.7-.92 8.67-2.84 18.62-1.32 27.3.92.12.95.25 1.9.38 2.88C592 39 592 39 594 41c.12 3.63.12 3.63 0 7l-2 1c-.06.57-.06.57-.38 3.44-.2 1.17-.41 2.35-.62 3.56-2.06 1.44-2.06 1.44-4 2v3h-3v2c-6.67 1.96-14.68 2-21-1l-1.56-1.62C560 59 560 59 557.31 58.81c-.76.06-1.52.13-2.31.19.16 1.16.16 1.16 1 7h2c.12.97.25 1.94.38 2.94.2 1.01.41 2.02.62 3.06.33.16.33.16 2 1v20h-1c-.09-1.13-.17-2.27-.26-3.44-.87-9.85-1.64-17.25-9.55-23.94q-1.08-.795-2.19-1.62v-2c-10.78-2.3-22.94-4.1-33.2 1.12-5.56 3.74-9.74 8.45-11.8 14.88-1.17 9.47-.62 18.84 2 28h-3c-3.36-7.97-3.57-15.45-3-24 .17-.16.17-.16 1-1 .07-1.52.08-3.04.06-4.56-.01-.83-.02-1.66-.02-2.51-.02-.63-.03-1.27-.04-1.93.32-.05.32-.05 1.94-.31.34-.12.34-.12 2.06-.69l1-3h2v-6h3l1-3h3v-3h-3v-5l5.19-1.44c.96-.26 1.92-.53 2.92-.81 5.52-1.44 9.2-1.56 14.89-.75 2.94-.44 2.94-.44 5-1 .16.33.16.33 1 2l3-1c1.29-2.58 1.13-4.49 1.12-7.38.01-.95.01-1.91.01-2.89-.13-2.73-.13-2.73-.7-4.96C543 31 543 31 544 29h2l1-3c1.13-.14 2.27-.29 3.44-.44C554 25 554 25 555 24"/><path fill="#e57556" d="M301 37h58c0 11.49 0 11.49-5.12 17.62-.48.61-.95 1.21-1.44 1.83-.97 1.23-1.95 2.46-2.94 3.68-2.58 3.22-5.03 6.55-7.5 9.87-.99 1.31-1.98 2.62-2.96 3.93-4.88 6.47-9.72 12.95-14.31 19.62-2.83 4.01-5.83 7.89-8.81 11.79C314 108 314 108 312 112h48v9h-61c0-12.67 0-12.67 5.25-18.94.49-.63.98-1.26 1.49-1.91 2.57-3.27 5.32-6.21 8.26-9.15.95-1.63 1.89-3.27 2.79-4.93 2-3.42 4.33-6.61 6.62-9.84 1.23-1.72 2.42-3.47 3.59-5.23h2l.79-1.7c1.34-2.55 2.91-4.82 4.59-7.18 2.03-2.86 4.03-5.72 5.93-8.68C342 51 342 51 344 50l1-4h-44Z"/><path fill="#f56c46" d="M482 62c5.22 4.23 7.48 9.59 9 16 .36 3.44.35 6.83.29 10.29 0 .94-.01 1.88-.01 2.85-.02 2.97-.05 5.95-.09 8.92-.02 2.03-.03 4.06-.04 6.09q-.06 7.425-.15 14.85h-11l-.06-3.45c-.08-4.26-.17-8.52-.26-12.77-.04-1.84-.07-3.68-.1-5.51-.05-2.66-.11-5.31-.17-7.96l-.03-2.46c-.13-5.23-.76-9.85-2.38-14.85-4.92-4.19-9.02-4.41-15.35-4.24-2.61.24-5.09.67-7.65 1.24l-1 3h-2c-.14.97-.29 1.94-.44 2.94C450 80 450 80 449 81c-.16 2.96-.26 5.89-.32 8.85l-.06 2.68-.18 8.53c-.05 1.93-.09 3.85-.13 5.77-.11 4.72-.21 9.45-.31 14.17h-11V60h11v7c4.88-3.75 4.88-3.75 6-6 8.62-3.45 19.77-3.59 28 1"/><path fill="#d05d02" d="M184.398 63.547c3.49 2.49 6.1 4.53 8.16 8.33.57 4.07.61 8.02.44 12.12l3-1c.32 8.36.22 15.23-3 23h-2v2h-3v3h-2v-2h-4c-.2-1.39-.38-2.79-.56-4.18-.05-.39-.05-.39-.32-2.36-.13-2.68.33-4.84.88-7.46.14-2.04.22-4.08.25-6.12.01-.52.01-.52.08-3.13-.38-3.16-1.02-3.73-3.33-5.75-.69-3.18-.69-3.18-1-6l-6-1v-2c-4.87-.19-8.43.38-13 2h-4v3h-3c-2.48 10.8-2.56 19.4 1 30l2 2c-.66.17-.66.17-4 1v3c-5.75.13-5.75.13-8-1v-7c-.16.17-.16.17-1 1-1.66.04-3.33.05-5-.00012499999986914645l-1-7h-2c-.67-22.89-.67-22.89 4.47-28.64 3.77-3.36 3.77-3.36 6.53-3.36v-2c8.99-8.98 29.67-6.72 39.4-.45"/><path fill="#d15f01" d="M104 34h18v87h-18Z"/><path fill="#f4f4f8" d="M408 71c3.67 3.38 6.72 6.73 7.16 11.9.05 2.3.08 4.61.09 6.91l.06 2.41c.04 5.04-.61 8.37-3.31 12.78h-2c-.25.6-.5 1.2-.75 1.81-1.74 3.04-3.74 4.74-7.12 5.75-6.37 1.31-11.72.86-17.41-2.36-4.51-3.14-7.44-7.9-8.72-13.2-.61-7.53-.87-14.8 3.55-21.27 7.54-8.48 18.18-11.04 28.45-4.73"/><path fill="#cb6007" d="M37 36h58v16H55l1 19c5.28.16 5.28.16 32 1v14H56v35H37Zm9 5v2l-5-1v76c2 1 2 1 12 1l1-33 33-1V73l-32-1-1-22 4-1-1-2c3.3-.16 3.3-.16 20-1l1-5H55v3l-3-1-1-2Z"/><path fill="#faf5ef" d="M176 51l-1 3c-2.06.69-2.06.69-4 1v2c.76-.06 1.53-.12 2.31-.19 5.13.26 9.79 1.72 14.69 3.19.08.62.16 1.25.25 1.89.75 2.11.75 2.11 2.6 3.16.73.23 1.46.46 2.21.7.74.24 1.47.48 2.23.73.56.17 1.13.34 1.71.52l-1 4h2v4h2c-.16-.5-.16-.5-1-3-.12-2.16-.18-4.33-.19-6.5-.01-1.14-.03-2.29-.04-3.47C199 59 199 59 201 56c1.96-.26 1.96-.26 4.32-.11l2.56.15c.89.07 1.77.14 2.68.21.89.05 1.78.11 2.7.16 6.58.43 6.58.43 7.74 1.59.12 1.09.25 2.19.38 3.31.64 3.8 1.35 4.78 3.62 7.69 2.03 5.44 2.23 10.29 2 16h4c-.02-.3-.02-.3-.11-1.79-.16-4.89-.19-8.28 3.11-12.21h2c-.2.77-.41 1.55-.62 2.34-1.53 5.9-2.8 11.6-3.38 17.66h-2l-1 5c-4.62-6.92-6.32-15.49-7.51-23.62C221 70 221 70 219.95 68.06 219 66 219 66 219 60h-17c.44 1.47.89 2.94 1.35 4.45.57 1.94 1.14 3.87 1.71 5.8.3.97.59 1.94.9 2.93.27.94.54 1.87.83 2.84.12.43.12.43.77 2.6.46 2.51.26 3.99-.56 6.38v-3l-6-2v22h-3c-.03.63-.03.63-.19 3.81-.26 2.22-.26 2.22-.81 4.19-2.44 1.81-2.44 1.81-5 3l-2 3c-1.8 1.03-1.8 1.03-3.88 1.94-3.36 1.58-5.61 3.26-8.12 6.06-2.36 1.18-3.8 1.13-6.43 1.13-.44 0-.44 0-2.66.01-.92-.01-1.84-.01-2.79-.02-.45.01-.45.01-2.76.02-.88 0-1.76-.01-2.66-.01h-2.44c-2.21-.13-4.14-.52-6.26-1.13v-2l-5-1v-2h-3l-1-4c.27.17.27.17 1.61 1.06.71.45 1.41.91 2.14 1.38.7.45 1.39.9 2.11 1.37 7.29 4.06 19.25 3.43 27.11 1.44A41.7 41.7 0 0 0 182 117c1.05-.6 2.1-1.2 3.19-1.81 5.97-4.65 9.75-9.51 11.43-16.94 1.12-9.7.62-19.03-5.01-27.33-5.25-6.25-11.36-10.29-19.62-11.12-2.13-.1-4.24-.13-6.37-.11h-2.26c-5.65.11-10.13 1.06-15.36 3.31l-3 1v2c-.93.56-1.86 1.11-2.81 1.69-4.55 3.3-5.47 7.14-7.19 12.31h-2l-1 3v-7h2c.1-.7.21-1.4.31-2.12.78-3.27 2.11-5.93 3.69-8.88h6v-3h3v-2c.91-.25 1.81-.49 2.75-.75C153 58 153 58 154.75 56c3.08-2.74 6.01-2.97 10.01-3.61C173 50.94 173 50.94 176 51"/><path fill="#f5f8fb" d="M172.227 74.094c3.52 2.41 5.47 4.25 7.27 8.16 1.02 7.6 1.73 13.62-2.95 20.12-3.67 3.87-8.05 4.79-13.17 5.13-3.54-.13-4.29-.43-7.25-2.69-4.51-5.97-6.83-10.24-6.13-17.81.65-3.2 1.45-6.13 3-9 2.69-1.57 2.69-1.57 5-2v-2c4.8-1.6 9.64-2.16 14.23.09"/><path fill="#fdf8ef" d="M101 28h2c.16.66.16.66 1 4 .64-.16 1.28-.31 1.93-.47.83-.2 1.66-.39 2.51-.59.82-.2 1.64-.4 2.49-.6.34-.06.34-.06 2.07-.34l1 1c1.16.14 2.31.29 3.5.44 1.16.18 2.31.37 3.5.56.16.33.16.33 1 2h-18v87h-1V34h-2v8l-3 1c-.16-.83-.16-.83-1-5-.05 1.07-.1 2.14-.15 3.25-.07 1.39-.15 2.79-.23 4.19-.01.35-.01.35-.09 2.14-.1 1.81-.31 3.62-.53 5.42-3.17 1.59-6.59 1.12-10.07 1.1-.8 0-1.59-.01-2.41-.01-2.55 0-5.1-.01-7.64-.03-1.73 0-3.46-.01-5.18-.01-4.23-.01-8.47-.03-12.7-.05v15c2.23-.01 4.45-.02 6.75-.04 2.14 0 4.29-.01 6.44-.01l4.49-.03c2.15-.01 4.29-.01 6.44-.02.65 0 .65 0 3.92-.01C89 69 89 69 90 70c.1 2.66.14 5.28.12 7.94.01.37.01.37.02 2.25-.01 5.56-.01 5.56-1.14 7.81H56v-2h32V72c-1.15.01-1.15.01-6.96.04-2.22 0-4.44.01-6.66.01l-4.63.03c-2.22.01-4.44.01-6.65.02-.35 0-.35 0-2.11.01-1.66 0-3.33-.05-4.99-.11l-1-1V52h40V36H37l-1 85h-1c-1.21-60.11-1.21-60.11-1-85h2l1-4 58 1c.16.33.16.33 1 2 2.06.62 2.06.62 4 1-.16-.66-.16-.66-1-4l2-1Z"/><path fill="#f36b45" d="M416 73c5.77 3.44 5.77 3.44 6.68 5.64 1.35 9.91 2.13 24.66-2.9 33.51-4.32 5.46-9.87 8.82-16.78 9.85-2.64.14-5.24.23-7.88.25l-2.06.06c-8.39.07-15.17-3.64-21.25-9.37-4.4-7.15-5.08-14.72-5.12-22.94-.01-.74-.01-1.48-.02-2.25.05-3.77.19-5.54 2.33-8.75h4l.15 3.4c.37 7.73.8 15.1 2.85 22.6h3l.12 1.88c.15.35.15.35.88 2.12 3.06 1.25 3.06 1.25 6 2v2c5.35 1.24 10.01.75 15.38.06.83-.1 1.66-.2 2.51-.3 2.04-.25 4.08-.5 6.11-.76.13-.79.25-1.59.38-2.41.78-3.27 1.97-3.66 4.62-5.59 2.31-4.3 2.27-8.49 2.19-13.25v-2.22c-.05-5.39-.05-5.39-1.19-6.53a77 77 0 0 1-.06-4.56c.01-.83.02-1.66.02-2.51.02-.63.03-1.27.04-1.93"/><path fill="#e47855" d="M573.875 30.813c1.23-.01 2.47-.03 3.74-.04 5.02.34 6.67 1.48 10.14 5.1 3.4 4.91 2.67 10.41 2.24 16.13h-2v2h-2c-.65 1.32-1.32 2.64-2 4h-2v2c-5.37 1.51-10.74 1.96-15.93-.25-2.13-1.8-3.08-3.17-4.07-5.75h-2c-2.23-4.47-1.62-10.17-1-15 3.59-6.71 7.54-8.15 14.88-8.19"/><path fill="#ce5a01" d="M182 62c3.11 2.21 6.09 4.54 9 7-1.81.62-1.81.62-4 1l-3-2c-2.7-.2-2.7-.2-5.69-.12-.99.01-1.99.03-3.01.05-.76.02-1.52.05-2.3.07v-5l-12-1-3 5h-4v2l-9-1c-2.4 3.5-3.46 5.74-3 10l1 2-1 2h8c-.03.73-.07 1.45-.11 2.2-.2 7.62.55 14.58 3.11 21.8l2 2c-.66.16-.66.16-4 1v3c-5.75.12-5.75.12-8-1v-7l-1 1C140.33 105.04 138.67 105.04 137 105l-1-7h-2c-.67-22.89-.67-22.89 4.46-28.64C142.24 66 142.24 66 145 66v-2c7.62-7.62 28.19-7.61 37-2"/><path fill="#d15d02" d="M207 64h7v2h-2l1 5h6v16h3c.13.64.27 1.28.4 1.93.18.83.36 1.66.54 2.51.17.82.35 1.64.52 2.49C224 96 224 96 225 97q3 .06 6 0c.33-1.16.33-1.16 2-7l5-1 1-3h2c.62 2.31.62 2.31 1 5l-2 3c-.41 2.04-.41 2.04-.62 4.19-.07.63-.07.63-.38 3.81h-2c.07.82.14 1.64.21 2.48.16 3.26.2 6.29-.21 9.52-3.79 3.98-7.63 4.57-13 5v-2h-4c-1.29-3.44-2.14-6.61-2.5-10.25C217 103 217 103 215 101c-.2-2.6-.2-2.6-.12-5.62.01-1.01.03-2.01.05-3.04.02-.77.05-1.55.07-2.34h-2c-.12-.8-.25-1.61-.38-2.44-.2-.84-.41-1.69-.62-2.56l-2-1c-.41-2.32-.74-4.66-1-7h-2Z"/><path fill="#ee7451" d="M557 74c4.79 4.79 3 12.91 3 19h-47c3.85 12.85 3.85 12.85 9 17 5.7 2.47 12.21 3.18 18.21 1.31 4.89-2.18 7.24-4.64 9.79-9.31l10 1c-.34 5.4-3.43 9.17-7 13-8.31 6.48-18.9 7.06-29 6-3.65-1.26-6.74-2.95-10-5-.7-.29-1.41-.58-2.13-.88-2.52-1.51-3.04-3.05-4.12-5.74-.34-.82-.67-1.64-1.02-2.48-.24-.63-.48-1.25-.73-1.9h2l1 2c2.56.62 2.56.62 5 1-.14-.56-.29-1.11-.44-1.69-.18-.76-.37-1.52-.56-2.31-.19-.74-.37-1.48-.56-2.25-.57-3.54-.44-7.16-.44-10.75h47Z"/><path fill="#f3f5fa" d="M389 73h3v11c2.94-.75 2.94-.75 6-2 .88-2.12.88-2.12 1-4h2v-2h3c.37 7.58.37 7.58-1.38 9.56-.53.48-1.07.95-1.62 1.44-.74 2.31-1.42 4.64-2 7h-2l1 2 2-1v2h2l1 3h-3l1 6c-.82.16-.82.16-5 1v2h-9c-.17-.5-.17-.5-1-3h-3v-2l-3-1c-1.25-8.2-1.65-17.04 1-25 1.85-.73 1.85-.73 4.06-1.19.74-.16 1.47-.31 2.23-.48.28-.05.28-.05 1.71-.33Z"/><path fill="#f4f4f9" d="M404 48h5v2c5.75 1.12 5.75 1.12 8 0v4h-3l-1 4c.82.33.82.33 5 2 1-2 1-2 1-6 2.93.63 5.36 1.59 8 3l1-3h1c.17.83.17.83 1 5h2v8l-4 2c-.04 1.67-.04 3.33 0 5l1 1c.1 2.99.14 5.95.12 8.94 0 .86 0 1.72-.01 2.61-.13 16.47-.13 16.47-3.11 19.45-.4 2.32-.74 4.66-1 7h-4v3c-.99.16-.99.16-6 1 .38-.46.75-.92 1.14-1.4 8.93-11.38 10.69-20.4 10.86-34.6h-2c-.18-.58-.18-.58-1.06-3.5-2.84-7.36-7.32-12.1-14.44-15.5-8.22-3.06-17.79-3.68-26.12-.62-1.12.53-2.23 1.07-3.38 1.62-.99.39-1.98.78-3 1.19-.66.27-1.32.53-2 .81 1.38-2.98 2.73-5.61 5-8 2.92-.61 2.92-.61 6.19-.75.54-.03.54-.03 3.29-.17.42-.01.42-.01 2.52-.08v-2c2.41-1.2 3.95-1.1 6.62-1.06.41 0 .41 0 2.48.02.31.01.31.01 1.9.04v4l4-1-1-6h-2Z"/><path fill="#f8f7f8" d="M293 27c4.75 1.15 9.38 2.38 14 4l1-2h2v4c.58-.02 1.16-.03 1.76-.05 6.03-.18 12.07-.34 18.1-.49l6.76-.18c3.23-.1 6.47-.18 9.71-.26l3.05-.09c.94-.02 1.88-.04 2.85-.07l2.5-.06c2.51.22 4.11.94 6.27 2.2l-1 2h-61v11h46l-1 4h-2l-.82 1.73c-2.06 3.97-4.66 7.58-7.18 11.27-.47.71-.95 1.41-1.43 2.14-1.14 1.66-2.35 3.26-3.57 4.86h-2c.11-1.48.24-2.96.38-4.44.06-.82.13-1.64.21-2.49.13-.69.27-1.37.41-2.07l2-1-4-2v-2c3.47.46 6.67.89 10 2l-.06-2.19c.06-2.73.49-5.14 1.06-7.81-4.27.31-8.54.62-12.81.94-1.22.08-2.43.17-3.68.26-1.17.09-2.33.18-3.53.26-1.07.08-2.15.16-3.25.24C311 51 311 51 308 52v-2h-6v4l-5-1 2-1-1-6-1.56 1.56c-3.41 2.01-5.67 1.24-9.44.44v-3c.65-.19 1.29-.37 1.96-.56C291 43 291 43 291.57 39.81l.12-3.81c.24-6.87.24-6.87 1.31-9"/><path fill="#f4f5f7" d="M561 33l3 1-1.98 2.01c-2.49 3.69-2.48 6.53-2.27 10.8.02.7.04 1.39.05 2.1.05 1.7.12 3.39.2 5.09h2c.64.8 1.28 1.61 1.94 2.44C566 59 566 59 569 60c2.23.07 4.46.08 6.69.06 1.18-.01 2.36-.02 3.57-.02.45-.01.45-.01 2.74-.04v-2c1.88-2.12 1.88-2.12 4-4h2v-2h2c-.4-12.55-.4-12.55-5-17v-2h6c.12.95.25 1.9.38 2.88C592 39 592 39 594 41c.12 3.63.12 3.63 0 7l-2 1c-.06.57-.06.57-.38 3.44-.2 1.17-.41 2.35-.62 3.56-2.06 1.44-2.06 1.44-4 2v3h-3v2c-6.67 1.96-14.68 2-21-1l-1.56-1.62C560 59 560 59 557.31 58.81c-.76.06-1.52.13-2.31.19.16 1.16.16 1.16 1 7h2c.12.97.25 1.94.38 2.94.2 1.01.41 2.02.62 3.06.33.16.33.16 2 1v20h-1c-.09-1.13-.17-2.27-.26-3.44-.87-9.85-1.64-17.25-9.55-23.94q-1.08-.795-2.19-1.62v-2c-11.63-2.48-21.34-2.24-33 0l1-3h6v-2c9.36-4.88 16.67-5.64 27-5v2l-3 2 7 3c2.21-3.57 2.29-6.66 2.44-10.81.32-5.46.81-9.46 3.56-14.19Z"/><path fill="#fbe6de" d="M450 56l2 3c6.75-1.88 6.75-1.88 9-3 6.03-.31 12.08-.32 18 1v2l4 1v2h3v2h2c1.25 1.4 1.25 1.4 2.56 3.38.44.62.87 1.25 1.32 1.89 2.83 6.88 2.26 15.06 2.07 22.39l-.06 2.63c-.04 1.81-.08 3.63-.13 5.44-.07 2.79-.13 5.58-.18 8.36-.04 1.77-.09 3.55-.13 5.32-.02.83-.03 1.66-.05 2.52-.17 5.84-.17 5.84-2.4 8.07-3.04.2-3.04.2-6.62.12-1.19-.01-2.38-.03-3.61-.05-.91-.02-1.83-.05-2.77-.07-.93-5.42-1.09-10.58-.99-16.07.02-1.74.03-3.48.05-5.21.03-2.72.07-5.43.11-8.14.04-2.63.07-5.27.09-7.9.02-.81.04-1.63.05-2.46.02-3.44-.04-5.77-1.83-8.76-.49-.48-.98-.96-1.48-1.46l1-2c3.78 3.17 4.47 5.16 5 10 .12 3.04.12 6.07.1 9.12 0 .85-.01 1.71-.01 2.59 0 2.72-.01 5.44-.03 8.17 0 1.85-.01 3.7-.01 5.55-.01 4.52-.03 9.05-.05 13.57h11c-.07-5.96-.16-11.92-.26-17.88-.04-2.02-.06-4.05-.09-6.07-.03-2.92-.08-5.84-.14-8.76 0-.9-.01-1.79-.02-2.71-.14-6.03-1.32-10.98-3.49-16.58-.17-.5-.17-.5-1-3-2.06-1.19-2.06-1.19-4-2v-2c-7.13-1.9-13.64-2.32-21-2-.37.01-.37.01-2.25.09-1.87.16-1.87.16-4.75.91-1.19 1.94-1.19 1.94-2 4-2.12 1.25-2.12 1.25-4 2v-7h-11v61h-1V69h-2V58Z"/><path fill="#f3f5f9" d="M530.25 66.813c6.68.12 10.2 2.32 15.2 6.55 3.71 3.92 3.55 5.97 3.55 11.64h-37c1.48-5.91 3.11-11.12 8-15 2.69-1.19 2.69-1.19 5-2 1.56-1.56 3.09-1.17 5.25-1.19"/><path fill="#c1793c" d="M104 34h18v87h-18Zm3 3c-.02 10.54-.04 21.09-.05 31.63-.01 4.9-.01 9.79-.03 14.69-.01 4.72-.01 9.44-.01 14.16-.01 1.8-.01 3.61-.02 5.41v7.56c-.01.75-.01 1.51-.01 2.29.01 5.15.01 5.15 1.12 6.26 1.83.1 3.67.13 5.5.12.5.01.5.01 3.03.01C119 119 119 119 120 118c.1-2.53.13-5.02.11-7.55v-2.39c0-2.63 0-5.25-.01-7.88 0-1.81-.01-3.63-.01-5.44 0-4.79-.01-9.57-.02-14.36-.01-4.88-.02-9.76-.02-14.64-.01-9.58-.03-19.16-.05-28.74Z"/><path fill="#f86942" d="M439 61h8v9l3 1c-.14.95-.27 1.9-.42 2.88-1.4 10.22-1.98 20.32-2.2 30.62l-.12 4.55c-.1 3.65-.18 7.3-.26 10.95h-8Z"/><path fill="#faf9f5" d="M36 38h1v83h19V88h33l1-17h1l2 15-3 1v3H61v10h2c-.08.47-.08.47-.5 2.88-.69 4.7-.59 9.38-.5 14.12l2 1-1 4h-2v2c-5.61 1.02-10.76.96-16.44.56-.82-.05-1.65-.1-2.5-.16-2.02-.12-4.04-.26-6.06-.4v-2h-2V66h1Z"/><path fill="#f7f8f8" d="M247 84c2 1 2 1 3 3.98.16.63.16.63 1 3.77 1.13 4.22 2.37 8.21 4 12.25.74 2.37 1.44 4.74 2.12 7.12.36 1.22.71 2.44 1.08 3.7.8 3.18.8 3.18.8 6.18h-2c-.17-1.32-.17-1.32-1-8-.62-.12-1.24-.25-1.88-.38C252 112 252 112 250 110c-.16.83-.16.83-1 5-.99.16-.99.16-6 1l-1 5c-.3.05-.3.05-1.81.31-2.19.69-2.19.69-3.63 2.19-2.05 1.97-3.8 2.13-6.56 2.5v2h-5v-2l-5-1-1 3h-2l-2-19c3.28 3.28 3.19 7.5 4 12h17c1.94-6.12 3.53-12.24 4.94-18.5 1.45-6.44 3.28-12.48 6.06-18.5"/><path fill="#fce8e2" d="M513 93h47v2h-45l3 5v2h2l1 3c2.3 1.07 4.64 2.07 7 3l1 1c2.19.07 4.38.08 6.56.06 1.2-.01 2.4-.02 3.63-.02.46-.01.46-.01 2.81-.04v-2h3l1-4h3v-3c1.6-.03 3.21-.05 4.81-.06.9-.01 1.79-.03 2.71-.04 2.48.1 2.48.1 5.48 1.1 1.19 2.56 1.19 2.56 2 5h-2c-.1.91-.21 1.81-.31 2.75-.74 3.48-1.16 4.8-3.69 7.25-1.89 1.13-3.8 2.08-5.8 2.99-2.2 1.01-2.2 1.01-4.06 2.12-5.36 2.96-10.69 3.45-16.7 3.83-.4.03-.4.03-2.44.17-5.71.25-9.83-.62-15-3.11-1-2.69-1-2.69-1-5l-6-1c-2.43-6.29-2.43-6.29-1-10 4 6.75 4 6.75 4 9 .56.1 1.11.21 1.69.31 2.76.82 4.85 2.19 7.31 3.69 7.53 3.67 17.66 2.92 25.62.81 4.13-1.45 6.6-3.37 9.38-6.81.72-.83 1.44-1.65 2.19-2.5 1.77-2.45 2.83-4.65 3.81-7.5l-10-1-2 4c-3.63 4.12-6.49 6.69-12.07 7.18-5.75.17-11.34.12-15.85-3.88-4.7-5.08-7.08-9.24-7.08-16.3"/><path fill="#f76640" d="M309.909 38.886h3.09c.56 0 .56 0 3.35.02h3.42l10.86.03c2.44.01 4.89.01 7.34.01 6.01.02 12.02.03 18.03.05 1.36 2.71 1.07 5.01 1 8l-4 1v5h-3v3h-2l-1 4h-3v5c-1.87 1.07-1.87 1.07-4 2l-2-1v-3h2l-.06-3.37c.06-3.63.06-3.63 1.06-5.63 2.06-.62 2.06-.62 4-1 .38-2.32.71-4.66 1-7-2.18-2.17-7.25-1.26-10.28-1.31-.93-.02-1.87-.04-2.82-.07l-8.96-.18c-2.02-.04-4.04-.09-6.06-.13-4.96-.11-9.92-.21-14.88-.31v-4c2.48-1.24 4.13-1.12 6.91-1.11"/><path fill="#f2f5f8" d="M565.848 23.902c2.05.03 4.1.07 6.15.1v3h9v-2c4.3-1.26 6.88-.63 11 1l2-2c.5.16.5.16 3 1v5l2-3c.17.49.17.49 1 3-.47.62-.95 1.24-1.44 1.87-1.89 2.58-1.82 4-1.56 7.13h-2l2 6 2-2c2.13-.63 2.13-.63 4-1-.5 2.17-1 4-2 6l6-2-11 11-2-2c-.6.82-1.19 1.65-1.81 2.5-.72.82-1.44 1.65-2.19 2.5h-3v-2l3-2c.69-3.63.69-3.63 1-7l3-1c-.25-2.35-.59-4.68-1-7l-2-1v-7l-3.87.06c-3.88.06-3.88.06-6.13-1.06-2.31-.1-4.62-.13-6.94-.13-.62 0-.62 0-3.77-.01-3.29.14-3.29.14-6.29 1.14-1.36-2.73-1.13-4.98-1-8 1-1 1-1 2.85-1.1"/><path fill="#d29564" d="M37 36h58v16H56v-1h38V38H39v82h16V88h1v33H37Z"/><path fill="#bb651f" d="M39 38h55v13c-6.27.16-6.27.16-38 1v19c5.28.16 5.28.16 32 1v14H56l-1 34H39Zm1 2c-.11 2.39-.16 4.76-.16 7.15-.01.75-.01 1.5-.02 2.27-.01 2.48-.02 4.97-.02 7.45-.01 1.72-.01 3.44-.02 5.16-.01 3.61-.02 7.22-.02 10.83-.01 4.64-.03 9.27-.06 13.91-.02 3.55-.02 7.11-.02 10.66-.01 1.71-.01 3.42-.03 5.13-.01 2.39-.01 4.77-.01 7.16-.01.71-.01 1.42-.02 2.16.01 1.96.01 1.96.38 5.12 3 2 3 2 13 2l1-33 33-1V73l-32-1-1-22h39V40c-2.45-1.23-4.06-1.13-6.8-1.13-1 0-2-.01-3.02-.01-1.08 0-2.16.01-3.28.01-.55 0-.55 0-3.34-.01-2.34 0-4.68.01-7.02.01-3.59 0-7.18 0-10.78-.01-2.26 0-4.53.01-6.8.01-1.08 0-2.16-.01-3.27-.01-1 0-1.99.01-3.02.01H43C41 39 41 39 40 40"/><path fill="#e28d75" d="M480 61v1c-1.24-.02-2.48-.05-3.76-.07-1.64-.02-3.29-.04-4.93-.05l-2.47-.06c-8.08-.06-8.08-.06-11.84 2.18l-1 3c.71-.02 1.43-.05 2.16-.07 7.52-.14 13.91-.15 19.84 5.07l-1 2c-.93-.66-1.86-1.32-2.81-2-6.2-3.57-13.46-2.49-20.19-1l-1 3h-2c-.12.97-.25 1.94-.38 2.94-.2 1.01-.41 2.02-.62 3.06l-2 1 1-10-2-1v-9h-8v59h8V87h1v34h-11V60h11v7c4.88-3.75 4.88-3.75 6-6 8.27-3.31 17.69-3.02 26 0"/><path fill="#fae9d4" d="M172.227 74.094c3.52 2.41 5.47 4.25 7.27 8.16 1.02 7.6 1.73 13.62-2.95 20.12-3.67 3.87-8.05 4.79-13.17 5.13-3.54-.13-4.29-.43-7.25-2.69-4.51-5.97-6.83-10.24-6.13-17.81.65-3.2 1.45-6.13 3-9 2.69-1.57 2.69-1.57 5-2v-2c4.8-1.6 9.64-2.16 14.23.09m-15.23 3.91c-.36 1.32-.69 2.66-1 4-.33.16-.33.16-2 1v8c.81.22 1.61.45 2.44.68.42.22.42.22 2.56 1.32.82 2.62.82 2.62 1 5h-4l1 4c1.1.31 2.19.62 3.32.93 2.24.65 4.47 1.33 6.68 2.07 3.19-.94 3.19-.94 6-2l-1-4h4c.2-1.75.38-3.5.57-5.25.1-.98.2-1.95.31-2.96.11-2.56-.1-4.38-.88-6.79h-2c-.06-.95-.12-1.9-.18-2.88-.82-3.12-.82-3.12-2.88-4.5-5.09-1.08-9.44-1.62-13.94 1.38"/><path fill="#f56a43" d="M513 71v8c-.33.16-.33.16-2 1l-1 6c5.45.16 5.45.16 33 1l-2 4h-29l2 18h-5c-.17-.5-.17-.5-1-3h-2c-2.74-23.02-2.74-23.02 1.38-32 1.66-2.05 2.8-3 5.62-3"/><path fill="#d35e02" d="M285.688 61.75c.59.02.59.02 3.57.11.46.02.46.02 2.74.14l-1 9h-2v3h-2l-1 11h-3v4l-9 3V80h2c-.03-.96-.07-1.93-.1-2.92l-.09-3.83c-.03-1.25-.06-2.51-.1-3.8.29-3.45.29-3.45 1.39-5.89 2.82-2.31 5-1.95 8.59-1.81"/><path fill="#eecfb0" d="M95 37h1v16c-3.17 1.59-6.59 1.12-10.07 1.1-.4 0-.4 0-2.41-.01-2.55 0-5.1-.01-7.64-.03-1.73 0-3.46-.01-5.18-.01-4.23-.01-8.47-.03-12.7-.05v15c2.23-.01 4.45-.02 6.75-.04 2.14 0 4.29-.01 6.44-.01l4.49-.03c2.15-.01 4.29-.01 6.44-.02.65 0 .65 0 3.92-.01C89 69 89 69 90 70c.1 2.66.14 5.28.12 7.94.01.37.01.37.02 2.25-.01 5.56-.01 5.56-1.14 7.81H56v-2h32V72c-1.15.01-1.15.01-6.96.04-2.22 0-4.44.01-6.66.01l-4.63.03c-2.22.01-4.44.01-6.65.02-.35 0-.35 0-2.11.01-1.66 0-3.33-.05-4.99-.11l-1-1V52h40Z"/><path fill="#df7e61" d="M319 83c1.12 3.75 1.12 3.75 0 6h-2c-.08.78-.17 1.57-.25 2.38-.25.86-.5 1.73-.75 2.62-1.33.67-2.67 1.33-4 2-.34 1.67-.67 3.33-1 5-3.21 3-3.21 3-6 3v3l-2 1-1 11h54v-4c-.98-.03-1.97-.05-2.98-.08-3.68-.09-7.37-.19-11.05-.29-1.59-.05-3.18-.09-4.76-.13-16.24-.41-16.24-.41-24.21-1.5v-1h47v9h-61c0-12.67 0-12.67 5.25-18.94.25-.31.25-.31 1.49-1.91 2.05-2.6 4.13-5.02 6.48-7.36 1.74-1.75 2.82-3.32 3.97-5.48C318 84 318 84 319 83"/><path fill="#fbdbd1" d="M408 71c3.67 3.38 6.72 6.73 7.16 11.9.05 2.3.08 4.61.09 6.91l.06 2.41c.04 5.04-.61 8.37-3.31 12.78h-2c-.25.6-.5 1.2-.75 1.81-1.73 3.04-3.74 4.72-7.09 5.76-2.31.46-4.44.6-6.78.62-.78.01-1.56.03-2.36.04C391 113 391 113 389 111c.98-.03 1.95-.05 2.96-.08 1.27-.05 2.54-.11 3.85-.17.63-.02.63-.02 3.83-.14 3.36-.61 3.36-.61 5.12-2.66.41-.64.82-1.29 1.24-1.95h3v-4h2c.14-1.13.29-2.27.44-3.44C412 95 412 95 413 94c.53-4.05 1.02-8.28-1.12-11.89-1.25-1.41-2.56-2.76-3.88-4.11v-3h-3v-2c-2.92-.05-5.83-.09-8.75-.12l-2.5-.06c-.8 0-1.6-.01-2.42-.02-.37 0-.37 0-2.22-.03-2.41.26-4.02 1.04-6.11 2.23v2h-2c-.2 2.83-.38 5.67-.56 8.5-.06.79-.11 1.58-.17 2.4-.32 5.19-.23 9.98.73 15.1l2 1v2h3l1 4c-2.95-.32-3.96-.96-6.06-3.12-5.08-7.54-5.8-13.83-4.94-22.88 1.73-6.67 5.52-11.74 11.31-15.5 7.07-1.31 14.41-1.36 20.69 2.5"/><path fill="#d25d01" d="M242 62h12l2 10h-3l-1 5h-2l-.12 1.81c-1.31 3.26-3.83 3.67-6.88 5.19-.88 2.19-.88 2.19-1 4v-3h-3v-3h-4l-1 3c.46-4.57.83-7.94 3-12 .14-1.03.29-2.06.44-3.12.18-.95.37-1.9.56-2.88l3-2Z"/><path fill="#e76e4e" d="M380 63c-1.56 3.82-4.04 6.19-7 9l2 5 4-1v-2l-4 1v-2c6.62-3.12 6.62-3.12 10-2-.49.52-.99 1.04-1.5 1.57l-1.94 2.12c-.64.68-1.27 1.37-1.93 2.07-4.06 5.58-3.07 13.66-2.63 20.24.64 3.17 1.35 6.2 3 9l3 1v2l2.88.94C389 111 389 111 391 112c1.54.22 3.08.41 4.62.56.82.09 1.64.17 2.48.26l1.9.18v1c-1.77.22-3.54.43-5.31.62-.99.12-1.97.24-2.99.36-2.7.02-2.7.02-5.7-1.98v-2l-7-2v-4h-3c-3.75-8.6-3.28-16.81-3-26h-4c-1.25 3.76-1.15 7.27-1.12 11.19-.01.73-.01 1.46-.02 2.21.01 4.95.44 9.7 1.14 14.6-3.87-3.87-4.27-8.71-4.38-14.01.03-9.99.73-18.58 8-26.11C376.87 63 376.87 63 380 63"/><path fill="#f4f7fb" d="M201 80c4 1 4 1 6 2v3h2c7.32 16.7 7.32 16.7 5 24l-4-1-1 6h-2l-1-8h-3v-2l-4 1-1-3h3Z"/><path fill="#c85f0a" d="M278 60h16c-.97 7.8-2.77 14.52-5.61 21.78-3.77 9.67-7.29 19.62-8.84 29.91-.77 3.23-2.24 6.26-3.55 9.31h-17l-1-5 2 1v3h15l-.06-4.38c-.06-4.37-.06-4.37 1.06-6.62.23-1.7.41-3.41.56-5.12.09-.92.17-1.83.26-2.76L277 99l-4-1c.75-5.75.75-5.75 3-8 2.32-.4 4.66-.74 7-1v-4h3l1-11h2v-3h2l1-9h-13l-2 4-1-2Z"/><path fill="#ca600b" d="M107 37h13c.02 10.54.04 21.09.05 31.63.01 4.9.01 9.79.03 14.69.01 4.72.01 9.44.01 14.16.01 1.8.01 3.61.02 5.41v7.56c.01.75.01 1.51.01 2.29-.01 5.15-.01 5.15-1.12 6.26-1.83.1-3.67.13-5.5.12-1 .01-2 .01-3.03.01C108 119 108 119 107 118c-.1-2.53-.13-5.02-.11-7.55v-2.39c0-2.63 0-5.25.01-7.88 0-1.81.01-3.63.01-5.44 0-4.79.01-9.57.02-14.36.01-4.88.02-9.76.02-14.64.01-9.58.03-19.16.05-28.74m1 1v79h10c.2-9.27.38-18.53.55-27.8.07-4.3.15-8.61.25-12.91.09-4.16.17-8.31.23-12.47.03-1.58.06-3.16.1-4.75.06-2.22.09-4.44.12-6.67.02-1.26.05-2.52.07-3.82-.37-4.18-1.49-6.84-3.32-10.58Z"/><path fill="#e1876e" d="M480 62c2 0 2 0 3.4 1.21.51.57 1.02 1.14 1.54 1.73.5.54 1.01 1.09 1.52 1.65 4.32 6.78 4.97 13.84 4.83 21.7 0 .94-.01 1.88-.01 2.85-.02 2.97-.05 5.95-.09 8.92-.02 2.03-.03 4.06-.04 6.09q-.06 7.425-.15 14.85h-11l-1-43c3.88 3.88 3.19 9.48 3.32 14.71l.06 2.2.18 6.9c.05 1.57.09 3.14.13 4.7.11 3.83.21 7.66.31 11.49h4c.05-5.73.09-11.46.11-17.19.01-1.95.02-3.89.04-5.84.03-2.81.04-5.61.05-8.42l.03-2.62c0-6.61-1.15-11.66-4.85-17.24C480 63.08 480 63.08 480 62"/><path fill="#f5ccbf" d="M304.697 34.87c1.22 0 2.44-.01 3.69-.01 1.34 0 2.68 0 4.02.01 1.36 0 2.73-.01 4.09-.01 2.86 0 5.72 0 8.59.01h11.02c2.82-.01 5.64-.01 8.45.000605468750002558 1.36 0 2.71 0 4.07-.01 1.89 0 3.78.01 5.68.01h3.26c2.43.13 2.43.13 3.43 1.13.1 1.79.13 3.58.13 5.37 0 .49 0 .49.01 2.97-.14 2.66-.14 2.66-1.14 5.66h-2v5h-3c-.16.49-.16.49-1 3h-2l-1 4-4 1c1.08-1.73 2.17-3.46 3.25-5.19.61-.96 1.21-1.92 1.83-2.92 1.92-2.89 1.92-2.89 4.09-5.13 1.83-2.76 1.83-2.76 2.83-12.76h-58v9h44v1h-46c-1.19-2.38-1.13-3.92-1.12-6.56 0-.41 0-.41-.01-2.44.28-4.2 3.29-3.13 6.83-3.13"/><path fill="#f5704a" d="M548 67c2.9.65 5.44 1.47 8 3 2.98 6.86 2.47 14.64 3 22h-47v-1c.87-.01 1.74-.03 2.63-.04 3.22-.07 6.43-.14 9.65-.22 1.39-.04 2.79-.06 4.18-.09 2-.03 4-.08 6-.14.6-.01.6-.01 3.65-.08.95-.14 1.91-.28 2.89-.43l2-3C546.62 86.81 546.62 86.81 550 87v-2h2l-2-8h-2l-2-8h2Z"/><path fill="#f6f7f7" d="M258 57l1 8h3v7l5-3v3c.31 1.67.64 3.34 1 5h3v-4h2l1-5c1.76 3.52.01 7.34-1 11-.7 2.07-1.47 4.1-2.27 6.14-1.01 2.58-1.87 5.22-2.73 7.86h-3c-2.32-6.56-4.38-12.96-5.51-19.84C259 71 259 71 258.01 69.09 257 67 257 67 256 61l-17-1-1 5c-1.04-3.13-.93-3.99 0-7 2.77-.17 5.54-.33 8.31-.5.79-.05 1.57-.1 2.38-.14.76-.05 1.52-.09 2.3-.14.69-.04 1.39-.09 2.11-.13 1.63-.08 3.27-.09 4.9-.09"/><path fill="#f7e9d6" d="M122 34l2 1 .03 2.23c.1 7.01.2 14.02.31 21.04.05 3.6.11 7.2.16 10.81l.15 10.45.06 4.11c.14 8.86.36 17.71 1.23 26.54.45 5.8-.66 7.73-2.94 13.82h-18l-1-3h18Z"/><path fill="#c46c22" d="M182 62c3.11 2.21 6.09 4.54 9 7-1.81.62-1.81.62-4 1l-3-2c-2.7-.2-2.7-.2-5.69-.12-.99.01-1.99.03-3.01.05-.76.02-1.52.05-2.3.07v-5l-12-1-3 5h-4v2c-.59-.13-1.18-.26-1.79-.39-2.48-.44-4.69-.73-7.21-.61-2.94 2.44-2.94 2.44-5 5h-2v2h-2c1.35-4.41 3.19-6.43 7-9h2v-2c7.62-7.62 28.19-7.61 37-2"/><path fill="#fdf5f2" d="M325 92c0 3.61-.96 6.56-2 10h-3v6c1.17-.02 2.34-.03 3.55-.05 4.33-.05 8.67-.09 13-.11 1.88-.02 3.76-.04 5.64-.07 2.69-.03 5.39-.05 8.08-.06.42-.01.42-.01 2.56-.05 2.36 0 2.36 0 6.17.34 2.14 3.2 2.23 4.02 2.12 7.69-.01.81-.03 1.61-.05 2.45-.02.61-.05 1.23-.07 1.86h-1v-8h-48c1.1-4.39 2.63-6.45 5.38-10 .79-1.03 1.58-2.06 2.39-3.12.74-.95 1.47-1.9 2.23-2.88 1-1.33 2-2.66 3-4"/><path fill="#fbe7e2" d="M561 33l3 1c-.33.33-.33.33-1.98 2.01-2.49 3.69-2.48 6.53-2.27 10.8.02.7.04 1.39.05 2.1.05 1.7.12 3.39.2 5.09h2c.64.8 1.28 1.61 1.94 2.44C566 59 566 59 569 60c2.23.07 4.46.08 6.69.06 1.18-.01 2.36-.02 3.57-.02.91-.02 1.81-.03 2.74-.04v-2c1.88-2.12 1.88-2.12 4-4h2v-2h2c-.4-12.55-.4-12.55-5-17v-2h6c.12.95.25 1.9.38 2.88C592 39 592 39 594 41c.12 3.63.12 3.63 0 7l-2 1c-.06.57-.06.57-.38 3.44-.2 1.17-.41 2.35-.62 3.56-2.06 1.44-2.06 1.44-4 2v3h-3v2c-6.82 2-14.47 1.82-21-1v-4c-.6-.08-1.2-.16-1.81-.25-2.91-1-3.62-2.13-5.19-4.75-.98-6.81-.45-13.02 3-19Z"/><path fill="#f7e1ca" d="M201 59h19l3 7c.33.5.33.5 2 3 1.97 5.47 2.23 10.28 2 16h4c-.02-.3-.02-.3-.11-1.79-.16-4.89-.19-8.28 3.11-12.21h2c-.2.77-.41 1.55-.62 2.34-1.53 5.9-2.8 11.6-3.38 17.66h-2l-1 5c-4.62-6.92-6.32-15.49-7.51-23.62C221 70 221 70 219.95 68.06 219 66 219 66 219 60h-17c.44 1.47.89 2.94 1.35 4.45.57 1.94 1.14 3.87 1.71 5.8.3.97.59 1.94.9 2.93.27.94.54 1.87.83 2.84.12.43.12.43.77 2.6.46 2.51.26 3.99-.56 6.38v-3c-.82-.33-.82-.33-5-2-.86-7.04-1.09-13.91-1-21"/><path fill="#f4f5fa" d="M464.438 68.813c.95-.01 1.89-.03 2.87-.04 2.8.24 4.37.67 6.69 2.23 1.69 3.06 1.69 3.06 3 6l1 1q.105 2.28.06 4.56c0 .83-.01 1.65-.02 2.5-.01.64-.03 1.28-.04 1.94l-3-2-4 2-4-3v6h-2c-1.21-4.96-.77-8.23 1-13 1.63-2.44 1.63-2.44 3-4-.6.15-1.2.31-1.83.47-.79.19-1.59.39-2.42.59-.79.2-1.58.39-2.39.6-2.46.35-4.01.11-6.36-.66l-1 2-2-1-2 4-1-2c1.25-3.73 2.85-4.75 6-7 3.05-1.02 5.24-1.17 8.44-1.19"/><path fill="#fcead5" d="M101 28h2c.16.66.16.66 1 4 .64-.16 1.28-.31 1.93-.47.83-.2 1.66-.39 2.51-.59.82-.2 1.64-.4 2.49-.6.34-.06.34-.06 2.07-.34l1 1c1.16.14 2.31.29 3.5.44 1.16.18 2.31.37 3.5.56.16.33.16.33 1 2h-18v87h-1V34h-2v8l-3 1c-.12-.8-.25-1.61-.38-2.44-.2-.84-.41-1.69-.62-2.56-2.62-1.31-4.62-1.16-7.55-1.21l-3.52-.06c-1.26-.01-2.52-.03-3.81-.05l-3.9-.06-10.24-.15c-3.49-.05-6.97-.11-10.46-.16C50.68 36.2 43.84 36.1 37 36v-1c7.62-.02 15.25-.04 22.87-.05 3.54-.01 7.08-.01 10.62-.03 4.07-.01 8.14-.01 12.21-.02 1.27 0 2.54-.01 3.85-.01h3.58c.52 0 .52 0 3.15-.01 2.41.11 4.42.43 6.72 1.12-.16-.66-.16-.66-1-4l2-1Z"/><path fill="#f76d47" d="M394.938 60.688c.35 0 .35 0 2.13.01 5.37.13 9.27.65 13.93 3.3 1.93 2.47 3 3.86 3 7-2.44-.37-2.44-.37-5-1-.16-.33-.16-.33-1-2-4-2.12-7.05-2.12-11.5-1.69-.55.05-.55.05-3.34.31-2.76.33-5.44.79-8.16 1.38v2c-3.73 2.04-5.67 3-10 3v2l4-1v2c-.64.11-1.28.21-1.94.31-.34.12-.34.12-2.06.69l-1 3c-1.73-5.1-1.73-5.1-2-8 1.63-2.75 1.63-2.75 4-5 .6-.72 1.2-1.44 1.82-2.19 4.83-4 11.07-4.17 17.12-4.12"/><path fill="#f7f4f6" d="M409 61l10 1v3h3v2h2l-2-6c.6.49 1.2.99 1.81 1.5C426 64 426 64 429 64c-.08.71-.17 1.42-.25 2.15-.11.92-.21 1.84-.31 2.79-.11.91-.21 1.83-.32 2.77L428 74l1 1c.1 2.99.14 5.95.12 8.94 0 .86 0 1.72-.01 2.61-.13 16.47-.13 16.47-3.11 19.45-.4 2.32-.74 4.66-1 7h-4v3c-.99.16-.99.16-6 1 .38-.46.75-.92 1.14-1.4 8.93-11.38 10.69-20.4 10.86-34.6h-2c-.35-1.16-.7-2.31-1.06-3.5-2.4-6.38-6.51-11.09-12.38-14.5-.84-.33-1.69-.66-2.56-1Z"/><path fill="#df866e" d="M412.262 62.25c5.26 3.36 10.4 7.92 12.51 13.95.29 1.93.29 1.93.23 4.8h2c.96 19.53.96 19.53-5 28-1.39-3.85-.6-7.02 0-11 .16-2.88.18-5.74.19-8.63 0-.36 0-.36.03-2.23.01-4.23-.52-7.3-2.22-11.14v-4h-3v-3c-.81-.27-1.61-.54-2.44-.81-.84-.39-1.69-.79-2.56-1.19l-1-3c-.95-.14-1.9-.29-2.88-.44-3.12-.56-3.12-.56-5.12-1.56-2.7-.1-5.37-.14-8.06-.13-.38 0-.38 0-2.26-.01-5.56.01-5.56.01-6.68 1.14q-3 .06-6 0c1-2 1-2 4.11-3.1 9.6-2.23 19.19-1.92 28.15 2.35"/><path fill="#f8f7fa" d="M329 89h3l-1 7h-2v4h2v-2h3v5l-4-1v3c2.83.2 5.67.38 8.5.56.79.06 1.58.11 2.4.17 5.2.32 9.95.07 15.1-.73l1-3h4l-1 4h-3v2h-37v-6h3c.12-1.09.25-2.19.38-3.31C324 95 324 95 326 92h3Z"/><path fill="#ee704b" d="M548 62v2c.62.27 1.24.54 1.88.81C552 66 552 66 554 69c-.76-.19-1.53-.37-2.31-.56C549 68 549 68 546 69c.35.76.7 1.53 1.06 2.31C548 74 548 74 547 77v-2c-.29-.12-.29-.12-1.75-.75C543 73 543 73 541 70.94c-3.15-3.05-6.36-3.09-10.62-3.13-.78-.01-1.56-.03-2.36-.04C526 68 526 68 524 70h-4v-2l5-1v-2h14v-3c-2.56-.05-5.12-.09-7.69-.12l-2.18-.06c-4.17-.03-7.42.21-11.13 2.18l-2 2c-2.12-.38-2.12-.38-4-1 8.37-8.37 25.79-8.1 36-3"/><path fill="#c85e07" d="M202 60h17c2.17 9.11 3.15 17.64 3 27l-3 1c-1-1-1-1-1.13-3.84 0-1.16 0-2.33.01-3.54-.01-.58-.01-.58-.01-3.52C218 74 218 74 219 71h-6l-1 2v-7h2v-2h-7v13c-1.85-2.78-2.69-4.78-3.62-7.94-.27-.85-.53-1.71-.79-2.59C202 64 202 64 202 60"/><path fill="#d56102" d="M270 100h6c1.07 6.27.88 10.91-1 17h-3v2c-7.41-1.34-7.41-1.34-10-4.25-1.12-3.09-1.23-5.48-1-8.75l3-1v-3c.99.17.99.17 6 1v2h2v-4Z"/><path fill="#c7844a" d="M239 60h17l2 7c.5 1.09.99 2.19 1.5 3.31 1.52 3.73 2.31 7.17 3.03 11.11.71 3.89 1.6 7.73 2.47 11.58h3c.11-.56.22-1.11.33-1.69.81-3.88 1.69-7.57 3.17-11.25 1.81-4.55 2.66-9.24 3.5-14.06h1v14h-2l-2 9h-2l-2 8h-3c-2.09-3.4-2.18-6.05-2-10h-2c-.67-2.29-1.34-4.58-2-6.88-.19-.65-.38-1.3-.58-1.97C257 73.23 257 73.23 257 71h-2l-1-9h-12l-1 4-3 1-.15 1.93c-.07.83-.15 1.66-.23 2.51-.03.41-.03.41-.21 2.49-.13.69-.27 1.37-.41 2.07l-2 1c.42-6.2 1.6-11.27 4-17"/><path fill="#f66f47" d="M316 114h40c.17.5.17.5 1 3l-1 2h-48v-1l8-1Z"/><path fill="#faf8ed" d="M101 34h2v84h-2c.01-1.21.01-2.42.02-3.67.17-44.36.17-44.36-1.02-63.33l-4 1V37c.33.16.33.16 2 1v5l2-1c.41-1.85.41-1.85.62-4.06.13-1.3.25-2.6.38-3.94"/><path fill="#fbf2f2" d="M300 47h45l-1 4h-2l-.82 1.73c-2.06 3.97-4.66 7.58-7.18 11.27-.47.71-.95 1.41-1.43 2.14-1.14 1.66-2.35 3.26-3.57 4.86h-2c.11-1.48.24-2.96.38-4.44.06-.82.13-1.64.21-2.49.13-.69.27-1.37.41-2.07l2-1-4-2v-2c3.47.46 6.67.89 10 2l-.06-2.19C336 54 336 54 337 49h-37Z"/><path fill="#fceddc" d="M36 38h1v83h19l-1 3H36v-2h-2V66h1Z"/><path fill="#faf4f2" d="M365 99c3.1 3.1 4.6 7.1 5.5 11.38.17.53.33 1.07.5 1.62l3 1 4 4c5.61 3.79 10.2 4.18 16.88 4.19l2.1.03c4.42.02 7.92-.61 12.02-2.22 2-.67 4-1.33 6-2-.5 2.31-.5 2.31-2 5-6.32 3.04-11.75 3.44-18.69 3.31-.46 0-.46 0-2.8.01-6.93-.05-11.72-1.35-17.51-5.32v-2h-3v-3h-2l-2-8h-2Z"/><path fill="#f9673f" d="M416 73c5.81 3.46 5.81 3.46 6.68 5.9.52 3.46.46 6.92.44 10.41.01.74.01 1.47.02 2.23-.02 12.04-.02 12.04-2.95 15.77-2.01 1.55-3.86 2.69-6.19 3.69-1-1-1-1-1.06-3.56L413 105l2-1c2.33-4.28 2.27-8.5 2.19-13.25v-2.22c-.05-5.39-.05-5.39-1.19-6.53a77 77 0 0 1-.06-4.56c.01-.83.02-1.66.02-2.51.02-.63.03-1.27.04-1.93"/><path fill="#c3702e" d="M172 71v2l2.81.06c1.05.31 2.11.62 3.19.94 1.75 3.44 1.75 3.44 3 7l2 2c.9 7.38.36 15.27-3 22-2.69 2.12-2.69 2.12-5 3l-1-2-2-1c.78-.74 1.57-1.48 2.38-2.25 3.57-3.74 4.91-6.32 4.93-11.5-.16-6.37-1.23-11.12-5.75-15.75-5.17-2.18-10.02-1.82-15.56-1.5v2c-.63.24-1.25.49-1.89.74-3.24 1.94-3.48 4.39-4.52 7.86-.77 3.14-1.25 6.19-1.59 9.4h-1c-.23-13.15-.23-13.15 3-18h3v-3c6.08-2.17 10.64-3.52 17-2"/><path fill="#f3f5f9" d="M578 38c2.56 1.44 2.56 1.44 4 4 .17 3.12-.04 6.02-1 9-3.79 2.52-6.55 2.72-11 2-2-1.5-2-1.5-3-4-.5-3.52-.63-6.74 1-10 3.27-1.64 6.48-1.61 10-1"/><path fill="#f9dad0" d="M555 102h6c.08 1.58.14 3.17.19 4.75.01.44.01.44.1 2.67-.35 3.11-1.15 4.34-3.29 6.58-1.87 1.22-3.77 2.07-5.8 2.99-2.2 1.01-2.2 1.01-4.06 2.12-5.36 2.96-10.69 3.45-16.7 3.83-.4.03-.4.03-2.44.17-5.71.25-9.83-.62-15-3.11-1-2.69-1-2.69-1-5-.99-.16-.99-.16-6-1-2.43-6.29-2.43-6.29-1-10 4 6.75 4 6.75 4 9 .28.05.28.05 1.69.31 2.76.82 4.85 2.19 7.31 3.69 7.53 3.67 17.66 2.92 25.62.81 4.13-1.45 6.6-3.37 9.38-6.81.72-.83 1.44-1.65 2.19-2.5 1.77-2.45 2.83-4.65 3.81-7.5h-5Z"/><path fill="#f06740" d="M311 100l2 1v11l9 1v1l-6 1 3 2c-11.52 2.3-11.52 2.3-17 2-1.12-4.69-.81-7.54 1-12h2v-3c3-2.19 3-2.19 6-4"/><path fill="#fddcd2" d="M304 99l3 1q-.735.885-1.5 1.8c-.64.83-1.28 1.66-1.94 2.51-.64.8-1.27 1.6-1.93 2.43C300 110 300 110 299 121h61v2c-8.05.05-16.1.08-24.15.1-3.74.01-7.47.03-11.21.05-3.6.02-7.21.03-10.81.04-1.38 0-2.76.01-4.14.02-1.92.02-3.85.02-5.77.02-1.1 0-2.2.01-3.33.01C298 123 298 123 296 121c-.58-5.79.79-9.76 3-15h2v-4c1.5-1.75 1.5-1.75 3-3"/><path fill="#f5f5f9" d="M286.625 57.75c.79.01 1.58.01 2.39.02 5.83.08 5.83.08 6.99 1.23 1.32.21 2.66.37 4 .5 3.88.39 3.88.39 5 1.5.13 3.66.16 6.51-1 10h-4v-7h-3c-.33 3.3-.67 6.6-1 10h-2c-.33 1.32-.67 2.64-1 4h-3c.94-6.12 2.46-12.01 4-18-2.64.16-2.64.16-16 1-.67 1.65-1.32 3.3-2 5h-1c-.37-4.52-.37-4.52 1.26-6.65 3-2.34 6.71-1.7 10.36-1.6"/><path fill="#bc661b" d="M210 76v8l3 1v5h2c.02.39.02.39.15 2.34.07 1 .15 2 .23 3.04.06.99.13 1.99.21 3.02.41 2.6.41 2.6 2.41 4.6.63 2.24.63 2.24 1.12 4.88.17.86.34 1.72.51 2.61.37 2.51.37 2.51.37 6.51h4v2h10v-2h2v4h-17l-2.88-8.94c-.26-.83-.53-1.66-.81-2.52-1.52-4.75-2.78-9.47-3.81-14.35-.83-3.65-1.98-7.19-3.12-10.75-.23-.73-.46-1.45-.7-2.19L206 77c3-1 3-1 4-1"/><path fill="#f7c9ba" d="M530.25 66.813c3.67.05 6.5.32 9.75 2.19.33.49.33.49 2 3l-13-2v2c-2.85 1.9-4.42 2.46-7.69 3.12-.81.17-1.61.34-2.45.51-.61.12-1.23.24-1.86.37l-2 7c.87-.01 1.75-.03 2.65-.04 10.15-.07 20.22.39 30.35 1.04-.16-1.16-.16-1.16-1-7 2 2 2 2 2 8h-37c1.48-5.91 3.11-11.12 8-15 2.69-1.19 2.69-1.19 5-2 1.56-1.56 3.09-1.17 5.25-1.19"/><path fill="#d35e01" d="M253 79l3 1-1 3 5 1c1.97 5.82 3.4 10.83 3 17l-7 1-1-4h-2c-.2-2.23-.38-4.46-.56-6.69-.11-1.24-.21-2.48-.32-3.76-.1-3.11.11-5.56.88-8.55"/><path fill="#e9724d" d="M581 37c2.59.35 4.51.65 6.65 2.2 1.88 2.51 1.68 4.26 1.6 7.36-.01.49-.01.49-.05 2.94C589 52 589 52 588 54h-2c-.19.62-.37 1.24-.56 1.88-2.19 3.23-4.71 3.36-8.44 4.12-2.94.12-2.94.12-5 0 0-3 0-3 1-5 .57-.15.57-.15 3.44-.94C580 53 580 53 582 50c.23-2.38.23-2.38.19-5-.01-.87-.02-1.73-.02-2.62C582 40 582 40 581 37"/><path fill="#f4ddc6" d="M247 84c2 1 2 1 3 3.98.33 1.25.66 2.49 1 3.77 1.13 4.22 2.37 8.21 4 12.25.74 2.37 1.44 4.74 2.12 7.12.36 1.22.71 2.44 1.08 3.7.8 3.18.8 3.18.8 6.18h-2l-1-8c-.6-.1-1.2-.21-1.81-.31-2.5-.79-3.57-1.66-5.19-3.69v-2h2l-1-3.12c-.97-3.36-1.17-6.37-1-9.88h-3v2h-2l-1 11h-2c.3-6.82.93-17.93 6-23"/><path fill="#f4603c" d="M338 67c-.31 3.37-.31 3.37-1 7l-3 2c-.69 2.62-.69 2.62-1 5l-4 1v3h-2v3c-3 2-3 2-7 2-.43-4.39-.53-6.33 2.25-9.88 2.44-1.88 3.74-2.79 6.75-3.12.03-.36.03-.36.19-2.19C330.5 70.26 333.11 67 338 67"/><path fill="#f7f7f6" d="M240 108h1c.43 6.08.04 11.14-4 16-2.42 1.25-4.26 1.58-7 2v2h-5v-2l-5-1-1 3h-2l-2-19c3.28 3.28 3.19 7.5 4 12h17c.47-1.59.95-3.18 1.44-4.81.82-2.75 1.65-5.47 2.56-8.19"/><path fill="#e46846" d="M439 61h8v7h-1v-5l-6 1 1 54h5c-.01-.6-.01-.6-.05-3.64-.05-4.45-.09-8.89-.11-13.34-.02-1.93-.04-3.85-.07-5.78-.03-2.76-.05-5.53-.06-8.29-.02-.87-.03-1.73-.05-2.62 0-2.43 0-2.43.34-6.33l3-2c-.07.59-.13 1.19-.2 1.8-.89 8.79-1.13 17.57-1.36 26.39-.05 1.54-.09 3.08-.13 4.62-.11 3.73-.21 7.46-.31 11.19h-8Z"/><path fill="#f7eadf" d="M158.188 76.375c.3.1.3.1 1.81.62l-3 1c-.33 1.66-.66 3.3-1 5h-2c.17.58.33 1.16.5 1.76.5 2.24.5 2.24.5 6.24.81.21 1.61.42 2.44.63.85.45 1.69.91 2.56 1.37.81 3.13.81 3.13 1 6-1.65-.32-3.3-.65-5-1v3c-1.87-.18-1.87-.18-4-1-2.88-4.76-2.65-10.18-1.43-15.44 2.76-9.01 2.76-9.01 7.62-8.18"/><path fill="#f9f4f4" d="M398.625 52.938c.41 0 .41 0 2.48.03.31 0 .31 0 1.9.03v4c.63.11 1.27.21 1.93.32.68.22 1.36.45 2.07.68.16.5.16.5 1 3l-2.05-.48c-8.85-1.55-17.82-1.44-25.95 2.48-1 .39-1.99.79-3 1.19-.67.27-1.32.54-2 .81 1.38-2.98 2.72-5.61 5-8 2.91-.61 2.91-.61 6.18-.75.55-.03.55-.03 3.3-.17.41-.01.41-.01 2.52-.08v-2c2.4-1.2 3.94-1.1 6.62-1.06"/><path fill="#c75d08" d="M242 62h12v2l-11 1v7h5l-1.88 1.69c-2.18 2.38-3.11 4.27-4.12 7.31-.82-.33-.82-.33-5-2l-2 6c-1.06-3.19-.97-4.81.38-7.88 1.09-2.65 1.69-4.61 2.12-7.5.16-.86.33-1.73.5-2.62l3-2Z"/><path fill="#f8d9d0" d="M449 80h1l1 44c-2.64.88-4.28 1.16-7 1.19-.34 0-.34 0-2.06.04C440 125 440 125 437 123v-2h11c-.01-1.21-.01-2.41-.02-3.66-.01-4.46-.03-8.92-.03-13.37l-.03-5.8c-.01-2.78-.01-5.55-.02-8.32 0-.87-.01-1.74-.01-2.64 0-2.07.05-4.14.11-6.21Z"/><path fill="#e57a5b" d="M511 66l1 4-3 1c-.14.8-.29 1.61-.44 2.44C508 76 508 76 507 77c-.94 6.55-1.13 12.95-1.06 19.56 0 .92.01 1.83.01 2.77.01 2.22.03 4.45.05 6.67-5.78-7.03-4.85-16.9-4.34-25.58.76-5.4 3.6-9.52 7.34-13.42Z"/><path fill="#fde7e3" d="M513.25 62.313c.58.23 1.15.45 1.75.69-.43.31-.43.31-2.63 1.87-4.89 4.26-8.81 8.75-9.66 15.41-.54 8.86-.16 17.18 2.29 25.72h-3c-3.36-7.98-3.57-15.45-3-24l1-1c.07-1.52.08-3.04.06-4.57-.01-.82-.02-1.65-.02-2.5-.02-.64-.03-1.28-.04-1.93.64-.11 1.28-.21 1.94-.31.34-.12.34-.12 2.06-.69l1-3h2v-3c2.17-2.17 3.14-3.12 6.25-2.69"/><path fill="#ee6c44" d="M569 31h11l1 5c-.78.05-1.56.1-2.37.15-1.01.07-2.02.15-3.07.23-1.01.06-2.02.13-3.06.21-.82.13-1.65.27-2.5.41l-1 2h-4c.16.49.33.99.5 1.5.71 3.53.56 6.9.5 10.5-1.94-.31-1.94-.31-4-1-1.18-3.55-1.27-6.27-1-10 1.38-1.94 1.38-1.94 3-3h2v-4h3Z"/><path fill="#be7c44" d="M191 70c4.02 3.26 5.52 7.97 6.69 12.88.85 8.47.69 16.55-3.31 24.24-3.08 3.73-6.47 7.02-10.38 9.88h-2v-3h3v-3h3v-3h3v-2h2c.07-.65.07-.65.44-3.94.44-3.94.44-3.94 1.56-5.06.07-2.19.08-4.38.06-6.56-.01-1.2-.02-2.4-.02-3.63-.02-.93-.03-1.86-.04-2.81h-2c-.06-.59-.12-1.18-.18-1.79-.44-4.12-.91-8.17-1.82-12.21"/><path fill="#f9e8d6" d="M286 86c1.09 3.32.9 5.66.19 9.06-.17.86-.35 1.72-.52 2.6C285 100 285 100 283 103c-.41 2.26-.41 2.26-.62 4.69-.08.81-.15 1.61-.23 2.45L282 112h-2c-.1.85-.21 1.69-.31 2.56C279 118 279 118 276 125l-17-1v-3h17l1-4c.31-.87.62-1.73.94-2.62.85-2.7 1.43-5.18 1.94-7.94 1.3-6.85 2.99-14.18 6.12-20.44"/><path fill="#de876f" d="M370 109h2v2l7 1 1 5c.32.07.32.07 1.94.44C384 118 384 118 385 119c9.22 1.57 17.08.58 26-2v-2h3v-3l5-1c-1.44 3.55-3.13 5.11-6.31 7.19-.76.51-1.52 1.02-2.3 1.54-4.84 2.58-9.88 2.48-15.27 2.52l-2.06.06c-7.49.06-13.09-2.8-19.06-7.31-4-4.53-4-4.53-4-6"/><path fill="#f7f5f4" d="M208 85c4.05 6.08 8.02 14.83 6.55 22.3-.18.56-.36 1.12-.55 1.7l-4-1-1 6h-2c-.07-.34-.07-.34-.4-2.08-.18-.9-.36-1.8-.54-2.73-.17-.9-.35-1.79-.52-2.71C205 104 205 104 204 101l4-2Z"/><path fill="#c67b3a" d="M282 90h2c-.42 5.07-1.04 9.28-3 14-.5 2.43-.93 4.86-1.34 7.3C279 114 279 114 276 121h-17l-1-5 2 1v3h15l-.06-4.38c-.06-4.37-.06-4.37 1.06-6.62.22-1.54.41-3.08.56-4.62.09-.82.17-1.64.26-2.48l.18-1.9 3-1-.12-2.81C280 93 280 93 282 90"/><path fill="#fb6844" d="M369 79h4l.15 3.51c.07 1.54.15 3.08.23 4.61l.09 2.31c.23 4.55 1 8.24 2.53 12.57-.38 3.38-.38 3.38-1 6h-3c-2.85-4.28-3.13-8.02-3.1-13.08.01-.93.01-1.86.01-2.82l.03-2.91c0-.98.01-1.96.01-2.97.01-2.41.03-4.81.05-7.22"/><path fill="#fce6dd" d="M382 73l1 4h-2c-.2 2.83-.38 5.67-.56 8.5-.06.79-.11 1.58-.17 2.4-.32 5.19-.23 9.98.73 15.1l2 1v2h3l1 4c-2.95-.32-3.96-.96-6.06-3.12-5.08-7.54-5.8-13.83-4.94-22.88 1.25-4.55 2.87-7.45 6-11"/><path fill="#f0f7f5" d="M565.848 23.902c2.05.03 4.1.07 6.15.1v3c1.82-.17 1.82-.17 11-1v4l2 1v2c-.51-.16-1.03-.33-1.56-.49-3.2-.67-6.23-.64-9.5-.64-1.23 0-2.46 0-3.72-.01-3.22.14-3.22.14-6.22 1.14-1.36-2.73-1.13-4.98-1-8 1-1 1-1 2.85-1.1"/><path fill="#d46001" d="M149 99v5h3c1.69 2 1.69 2 3 4l-4 1v3c-5.75.12-5.75.12-8-1v-7l-4 1c0-3 0-3 1.06-4.69 2.91-1.97 5.52-1.5 8.94-1.31"/><path fill="#f4633b" d="M389 63l1 4-5 1v2c-3.73 2.03-5.67 3-10 3v2l4-1v2c-.64.1-1.28.21-1.94.31-.34.12-.34.12-2.06.69l-1 3c-1.73-5.1-1.73-5.1-2-8 1.62-2.75 1.62-2.75 4-5 .56-.76 1.11-1.53 1.69-2.31 3.54-2.59 7.07-2.02 11.31-1.69"/><path fill="#faf7f9" d="M371 65l4 1-1.21 1.21C365.4 76.22 365.42 86.28 365 98c-2.23-4.03-2.54-7.45-3-12l-1 4h-2c.06-1.96.15-3.92.25-5.88.05-1.09.09-2.18.14-3.3.2-.93.4-1.86.61-2.82 1.98-1.2 1.98-1.2 4-2l1-3h2l1-5h2Z"/><path fill="#ef6c4a" d="M422 77l1 3c2.06.69 2.06.69 4 1 .96 19.53.96 19.53-5 28-1.39-3.86-.58-7.01 0-11 .12-3.65.09-7.29.06-10.94 0-.97-.01-1.94-.01-2.94-.01-2.37-.03-4.75-.05-7.12"/><path fill="#eb7454" d="M400.625 64.75c3.26.34 5.57 1.59 8.38 3.25.32.66.66 1.32 1 2 2.06.63 2.06.63 4 1-.33-1.32-.67-2.64-1-4 1.31.66 2.63 1.32 4 2v3h3v3h-8v-2c-.31-.1-.31-.1-1.87-.62-3.38-1.13-6.76-2.25-10.13-3.38-5.05-.29-10.09-.31-15 1v-2c5.1-2.39 10.09-2.72 15.62-3.25"/><path fill="#fcebe5" d="M532.375 55.75l2.33-.06c4.46-.03 6.91.14 10.29 3.31 1.93.95 1.93.95 3.76 1.69 1.07.43 2.14.86 3.24 1.31-.33 1.32-.65 2.64-1 4l-3-2v-2c-11.62-2.48-21.33-2.24-33 0 .34-.99.66-1.98 1-3h6v-2c3.26-1.63 6.81-1.23 10.38-1.25"/><path fill="#e49b85" d="M557 74c4.79 4.79 3 12.91 3 19h-47c3.38 11.25 3.38 11.25 6 15l-5-1c-1.89-5.66-2-8.47-2-15h47Z"/><path fill="#c5600d" d="M53 55h1l1 17c5.28.16 5.28.16 32 1v12h-1V75c-.79.04-1.58.07-2.4.11-3.6.16-7.19.3-10.79.45-.62.03-.62.03-3.77.17l-3.65.15c-.55.02-.55.02-3.34.14C59.18 76 56.75 75.8 54 75c-1.15-2.3-1.12-3.58-1.1-6.13.01-.81.01-1.61.01-2.44l.03-2.55c0-.85.01-1.7.01-2.58.01-2.1.03-4.2.05-6.3"/><path fill="#f9e5ce" d="M274 68c1.76 3.52.01 7.34-1 11-.7 2.07-1.47 4.1-2.27 6.14-1.01 2.58-1.87 5.22-2.73 7.86h-3c-.7-1.96-1.38-3.91-2.06-5.88l-1.16-3.3C261 81 261 81 262 79c1.5 1.38 1.5 1.38 3 3v2l2-1c.62-3.06.62-3.06 1-6h3v-4h2Z"/><path fill="#f8e1cb" d="M131 83h1c.07 1.18.15 2.37.23 3.59.73 9.46 1.71 16.73 7.77 24.41.28.37.28.37 1.69 2.26.22.29.22.29 1.31 1.74-.66.16-.66.16-4 1l-1-5h-3v-2l-3-1c-.02-.31-.02-.31-.15-1.86-.07-.81-.15-1.62-.23-2.45-.06-.8-.13-1.6-.21-2.43C131 99 131 99 129 96c-.27-2.12-.27-2.12-.25-4.44-.01-.76-.01-1.52-.02-2.31.3-2.46 1.04-4.11 2.27-6.25"/><path fill="#fbd7cc" d="M375 116c.53.28 1.06.55 1.61.84.71.36 1.41.72 2.14 1.1l2.11 1.09c4.62 2.1 8.99 2.15 14.02 2.16l2.1.03c4.42.02 7.92-.61 12.02-2.22 2-.67 4-1.33 6-2-.69 2.37-.69 2.37-2 5-5.33 2.71-10.59 2.33-16.44 2.31-1.02.02-2.05.03-3.1.05-5.67 0-9.67-.24-14.46-3.36v-2l-4-1Z"/><path fill="#fcefdd" d="M56 88h30v1l-26 1c-1.33 2.67-1.18 4.8-1.25 7.78-.03 1.15-.06 2.3-.1 3.49-.06 2.44-.11 4.88-.17 7.32-.03 1.16-.07 2.31-.1 3.5-.03 1.06-.05 2.12-.08 3.21C58 118 58 118 56 121Z"/><path fill="#f76a41" d="M468 62c1.96.36 3.92.71 5.88 1.06 1.7.31 3.41.63 5.12.94v2h2v2c-1.92-.14-3.83-.29-5.75-.44-1.07-.08-2.13-.16-3.23-.24-3.02-.32-3.02-.32-5.11-.88C464.54 65.9 462.65 66.12 460.25 66.44c-.8.1-1.6.2-2.42.31-.61.08-1.21.16-1.83.25.36-1.92.36-1.92 1-4 3.97-2.38 6.6-1.98 11-1"/><path fill="#c45804" d="M142 70c0 3.46-.83 4.77-2.5 7.75-2.31 4.45-3.04 7.3-2.5 12.25h2v5h-2v8h-1v-5h-2c-.05-2.9-.09-5.79-.12-8.69l-.06-2.47c-.03-4.41.1-7.83 2.18-11.84h2v-2c2-1.62 2-1.62 4-3"/><path fill="#fad0be" d="M578 38c2.56 1.44 2.56 1.44 4 4 .17 3.12-.04 6.02-1 9-3.79 2.52-6.55 2.72-11 2-2-1.5-2-1.5-3-4-.5-3.52-.63-6.74 1-10 3.27-1.64 6.48-1.61 10-1m-8 3c-.25 6.62-.25 6.62 2 10 3.56.25 3.56.25 7 0 1.9-1.9 1.12-4.57 1.13-7.09C580 42 580 42 579 40c-6.75-.12-6.75-.12-9 1"/><path fill="#bf6c27" d="M145 116c1.79.14 3.58.29 5.38.44.49.04.49.04 3.02.24 2.6.32 2.6.32 4.6 1.32v2c2.81-.17 2.81-.17 17-1v-2h7c-1.46 2.92-3.74 3.33-6.69 4.38-3.8 1.02-7.46 1.05-11.37 1l-2.32.03c-6-.03-10.89-1.03-15.56-5.1-.35-.43-.7-.86-1.06-1.31"/><path fill="#de7d63" d="M554 69c2.52 1.9 3 3.01 3.73 6.14.15 1.21.3 2.43.46 3.67.16 1.21.31 2.41.48 3.65C559 86 559 86 559 92h-47v-1l44-1V75h-2Z"/><path fill="#df8369" d="M548 62v2c.62.27 1.24.54 1.88.81C552 66 552 66 554 69a98 98 0 0 1-6-2c-.16-.33-.16-.33-1-2-1.99-.7-3.99-1.37-6-2l-1-1c-2.76-.13-5.49-.19-8.25-.19l-2.32-.03c-4.24-.02-7.6.17-11.43 2.22l-2 2c-2.12-.38-2.12-.38-4-1 8.37-8.37 25.79-8.1 36-3"/><path fill="#fdc3b2" d="M325 92c0 3.61-.96 6.56-2 10h-3v2c-1.65 1.69-3.31 3.35-5 5l-1 2h45v1h-47c1.1-4.39 2.63-6.45 5.38-10 .79-1.03 1.58-2.06 2.39-3.12.74-.95 1.47-1.9 2.23-2.88 1-1.33 2-2.66 3-4"/><path fill="#cc5f08" d="M165 61c8.5-.49 16.82.06 23.62 5.69.79.76 1.57 1.52 2.38 2.31-1.81.62-1.81.62-4 1l-3-2c-2.7-.2-2.7-.2-5.69-.12-.99.01-1.99.03-3.01.05-.76.02-1.52.05-2.3.07v-5l-8-1Z"/><path fill="#fce2db" d="M424 76c2.54 2.13 3.87 3.31 4.49 6.63l-.03 2.94c0 1.06-.01 2.12-.01 3.22-.03 1.1-.05 2.2-.07 3.33-.01 1.11-.01 2.22-.01 3.37-.09 8.23-.09 8.23-2.37 10.51-.4 2.32-.74 4.66-1 7h-4v3c-.99.16-.99.16-6 1 .38-.46.75-.92 1.14-1.4 8.93-11.38 10.69-20.4 10.86-34.6h-2Z"/><path fill="#fef2e2" d="M143 115c.24.17.24.17 1.47 1.02 10.93 7.28 23.86 7.45 36.53 4.98-3.75 3.92-3.75 3.92-7 4.13h-2.43c-.44 0-.44 0-2.66.01-.92-.01-1.84-.01-2.79-.02-.45.01-.45.01-2.76.02-.88 0-1.76-.01-2.66-.01h-2.44c-2.21-.13-4.14-.52-6.26-1.13v-2l-5-1v-2h-3Z"/><path fill="#de7d62" d="M557 108c0 4.05-1.23 5.09-4 8-7.03 4.64-13.44 6.28-21.94 6.12-.68 0-1.37-.01-2.07-.02-1.66-.03-3.33-.06-4.99-.1l-1-2h19v-3h6v-3l6-2v-3Z"/><path fill="#f86138" d="M312 104c-.33 1.99-.65 3.97-.98 5.96C311 112 311 112 313 115c-3.64 2.43-5.71 2.16-10 2v-7h2v-3c2.32-3.13 2.83-3 7-3"/><path fill="#e38265" d="M319 83c1.12 3.75 1.12 3.75 0 6h-2c-.08.78-.17 1.57-.25 2.38-.25.86-.5 1.73-.75 2.62-1.33.67-2.67 1.33-4 2-.34 1.67-.67 3.33-1 5-3.21 3-3.21 3-6 3v3l-2 1c-1.12 2.06-1.12 2.06-2 4h-2c1.47-4.28 3.64-7.47 6.38-11.06.38-.51.38-.51 2.33-3.1C310 95 310 95 312.15 92.86c1.77-1.78 2.87-3.35 4.04-5.55C318 84 318 84 319 83"/><path fill="#f5663f" d="M548 67l6 2v6h2v6h-5l-1-4h-2l-2-8h2Z"/><path fill="#fee8e0" d="M542 72c2.44.94 2.44.94 5 3 .75 2.99.93 5.93 1 9-11.06.11-21.98-.09-33-1 .26-2.34.59-4.68 1-7l2-1-1 7h28c-2-7-2-7-3-10"/><path fill="#e38364" d="M340 54c1.53 3.07.55 5.7 0 9h-2v2l-2.38.25c-2.62.75-2.62.75-3.81 2.37-.68 2-1.23 4.03-1.75 6.07-.35 1.09-.7 2.18-1.06 3.31l-3 1a139 139 0 0 0-5 5c0-3.59.9-4.75 2.88-7.69.53-.81 1.06-1.61 1.61-2.45.5-.61 1-1.23 1.51-1.86h2c.26-.56.52-1.11.78-1.68 1.38-2.63 3-4.96 4.72-7.38 1.87-2.63 3.71-5.26 5.5-7.94"/><path fill="#ba5f14" d="M180 81l3 2c1.17 7.24.29 15.41-3 22-2.69 2.12-2.69 2.12-5 3l-1-2-2-1c.76-.7 1.53-1.4 2.31-2.12 5.78-6.19 5.99-11.03 5.8-19.25-.02-.43-.02-.43-.11-2.63"/><path fill="#e76e48" d="M569 31v2h-3v4c-.33.24-.33.24-1.98 1.43C562 40 562 40 561.61 42.48c.05.89.09 1.79.14 2.71.04.9.07 1.8.11 2.73.02.34.02.34.14 2.08.6.12 1.2.25 1.81.38C566 51 566 51 569 53v3h-5l-1-4h-2v-3h-2c-.91-8.42-.91-8.42 1.27-12.19C565.25 31 565.25 31 569 31"/><path fill="#f6caba" d="M343 68c0 3.26-.58 4.16-2 7-.29 1.2-.58 2.39-.88 3.62C339 82 339 82 337.06 83.12L335 84c-.52.87-1.03 1.73-1.56 2.62-.48.79-.95 1.57-1.44 2.38h-3v3h-3c1.76-3.96 4.29-7.37 6.81-10.88.43-.59.85-1.19 1.29-1.81 2.81-3.92 5.77-7.64 8.9-11.31"/><path fill="#efcfb2" d="M201 59h16v1h-15c.44 1.47.89 2.94 1.35 4.45.57 1.94 1.14 3.87 1.71 5.8.3.97.59 1.94.9 2.93.27.94.54 1.87.83 2.84.12.43.12.43.77 2.6.46 2.51.26 3.99-.56 6.38v-3c-.82-.33-.82-.33-5-2-.86-7.04-1.09-13.91-1-21"/><path fill="#cc6c1e" d="M150 95c2.26 2.26 3.43 4.54 4.9 7.34C156 104 156 104 159 106c2.92.2 2.92.2 6.19.12 1.08-.01 2.17-.03 3.29-.05.83-.02 1.66-.05 2.52-.07l-1 2c-2.29.41-2.29.41-5.06.62-.92.08-1.84.15-2.79.23-.35.03-.35.03-2.15.15v5l7-2v4l-8-1c-.12-.8-.25-1.61-.38-2.44-.2-.84-.41-1.69-.62-2.56l-2-1v-2l-4-1c-1.19-3.88-2-6.92-2-11"/><path fill="#e08264" d="M376 82c1.39 2.77.98 4.97.88 8.06-.05 5.6.21 11.01 3.12 15.94l3 1v2l2.88.94C389 111 389 111 391 112c1.54.22 3.08.41 4.62.56.82.09 1.64.17 2.48.26l1.9.18v1c-1.77.22-3.54.43-5.31.62-.99.12-1.97.24-2.99.36-2.7.02-2.7.02-5.7-1.98v-2l-7-2v-4h-3c-1.16-4.6-1.15-9.04-1.12-13.75-.01-.78-.01-1.56-.02-2.36.01-5.76.01-5.76 1.14-6.89"/><path fill="#ffd5c7" d="M474 72c1.88.5 1.88.5 4 2 1.87 5.87 2.27 11.18 2.2 17.31-.01.86-.01 1.71-.01 2.59-.01 2.7-.04 5.4-.07 8.1-.01 1.84-.01 3.68-.02 5.53-.02 4.49-.06 8.98-.1 13.47h-1c-.04-1.28-.09-2.56-.14-3.88-.17-4.76-.36-9.52-.55-14.27-.08-2.06-.16-4.12-.23-6.18-.1-2.96-.22-5.91-.35-8.87l-.09-2.79c-.35-7.58-.35-7.58-3.64-11.01Z"/><path fill="#e97150" d="M475 70c.82.17.82.17 5 1 3.94 9.29 3.34 18.75 3.19 28.62-.02 1.69-.03 3.38-.04 5.07-.04 4.1-.09 8.21-.15 12.31h5l-1 2-5-1c-.01-.95-.03-1.91-.04-2.89-.06-3.57-.14-7.14-.22-10.71-.04-1.54-.06-3.08-.09-4.62-.13-8.44-.51-15.83-3.65-23.78v-4l-3-1Z"/><path fill="#c5600c" d="M241 91h1c-.65 6.2-1.44 12.35-2.44 18.5-.12.81-.24 1.62-.37 2.45-.33 2.03-.75 4.04-1.19 6.05l-2 1v-2h-2v2h-7c.58-.27 1.16-.54 1.75-.81 2.25-1.19 2.25-1.19 4.37-2.81C235 114 235 114 237 114v-12h2l-.12-3.81c-.12-3.48.06-4.1 2.12-7.19"/><path fill="#fbf2ef" d="M585 33h6c.12.95.25 1.9.38 2.88C592 39 592 39 594 41c.12 3.62.12 3.62 0 7-.33.16-.33.16-2 1-.12 1.13-.25 2.27-.38 3.44-.2 1.17-.41 2.35-.62 3.56-2.06 1.44-2.06 1.44-4 2 .16-.26.16-.26.98-1.57 1.35-3.2 1.36-5.89 1.4-9.37.02-1.2.05-2.41.08-3.65-.54-3.97-1.81-5.49-4.46-8.41Z"/><path fill="#c17a3c" d="M215 105l1 3h2c1.5 3.37 2 5.2 2 9h4v2h10v-2h2v4h-17c-4-11.5-4-11.5-4-16"/><path fill="#f9e2c7" d="M157 59c-3.01 2.01-5.57 2.93-9 4l-3 1v2c-.93.56-1.86 1.11-2.81 1.69-4.55 3.3-5.47 7.14-7.19 12.31h-2l-1 3v-7h2c.1-.7.21-1.4.31-2.12.78-3.27 2.11-5.93 3.69-8.88h6v-3h3v-2c3.21-1.61 6.44-1.06 10-1"/><path fill="#b96a2d" d="M202 60h17l1 8-3-1-1-4h-10v11c-2.98-4.48-4-8.64-4-14"/><path fill="#be793f" d="M278 60h16c-1.2 8.4-3.09 16.03-6 24-1.07-3.27-.89-5.43-.06-8.75.19-.8.39-1.6.59-2.42.15-.61.31-1.21.47-1.83h2l1-9h-13l-2 4-1-2Z"/><path fill="#c95e07" d="M147 85l3 1-.12 3.38c-.02 5.02 1 9.74 2.12 14.62h-3v-5c-.64-.14-1.28-.29-1.94-.44C145 98 145 98 144 97c-.47-7.21-.47-7.21 1.5-10.5Z"/><path fill="#c55e0b" d="M221 70h1c1.01 4.66 2.01 9.33 3 14 .21 1 .43 1.99.64 3.02.18.86.36 1.72.55 2.6.16.76.31 1.52.48 2.29C227 94 227 94 227 98c-1.94-.81-1.94-.81-4-2-.99-2.98-1.2-5.2-1.32-8.32l-.12-3.12-.12-3.25c-.05-1.08-.09-2.16-.13-3.28-.11-2.68-.21-5.35-.31-8.03"/><path fill="#f3f5f2" d="M289 78c.93 3.01 1.04 3.87 0 7-.07 1.85-.15 3.7-.19 5.55-.21 7.51-.83 12.48-5.81 18.45h-1c-.25-5.62-.25-5.62 2-9 .57-2.61 1.07-5.18 1.5-7.81.82-4.91 1.79-9.5 3.5-14.19"/><path fill="#f6dfc6" d="M258 57l2 14-2-1c-.91-2.96-1.4-5.96-2-9l-17-1-1 5c-1.04-3.13-.93-3.99 0-7 2.77-.17 5.54-.33 8.31-.5.79-.05 1.57-.1 2.38-.14.76-.05 1.52-.09 2.3-.14.69-.04 1.39-.09 2.11-.13 1.63-.08 3.27-.09 4.9-.09"/><path fill="#fee8e1" d="M316 107l1 3 43-1c1.2 2.41 1.1 3.95 1.06 6.62-.01.82-.02 1.64-.02 2.48-.02.63-.03 1.25-.04 1.9h-1c-.17-1.32-.17-1.32-1-8l-45-1Z"/><path fill="#fde4dc" d="M324 71l3 1c-1.08 1.73-2.16 3.46-3.25 5.19l-1.83 2.92c-1.84 2.76-3.83 5.31-5.92 7.89-.52.89-1.03 1.77-1.56 2.69C313 93 313 93 310 95v-4h3v-6h2v-3h3v-3h3l1-5h2Z"/><path fill="#e27255" d="M448 76c1.1 3.29.76 5.45.28 8.83-.43 3.38-.51 6.77-.6 10.17l-.06 2.19-.18 6.81c-.05 1.55-.09 3.11-.13 4.66-.11 3.78-.21 7.56-.31 11.34h-8v-2h7l-.03-3.64c-.04-4.45-.06-8.89-.08-13.34-.01-1.93-.02-3.85-.04-5.78-.03-2.76-.04-5.53-.05-8.29l-.03-2.62c0-2.11.11-4.22.23-6.33Z"/><path fill="#bf5c0e" d="M175 105v5c-1.05.1-2.1.21-3.19.31-3.73.67-5.68 1.69-8.81 3.69h-3l-1-6 2.27-.15c.98-.07 1.97-.15 2.98-.23.49-.03.49-.03 2.95-.21 2.67-.39 5.3-2.41 7.8-2.41"/><path fill="#f6ddbf" d="M247 84l2 1c.41 2.29.41 2.29.62 5.06.08.92.15 1.84.23 2.79L250 95l-4-1v2h-2l-1 11h-2c.3-6.82.93-17.93 6-23"/><path fill="#de866a" d="M368 73h1c.1 6.15.1 6.15 0 8l-1 1c-.1 2.7-.14 5.36-.12 8.06-.01.74-.01 1.48-.02 2.24.01 4.98.43 9.77 1.14 14.7-3.91-3.91-4.26-8.76-4.33-14.12.01-.72.01-1.45.02-2.19v-2.27c.1-5.65 1.03-10.2 3.31-15.42"/><path fill="#de8267" d="M480 61v1c-.6-.02-.6-.02-3.62-.14-15.44-.41-15.44-.41-21.85 3.36q-.75.39-1.53.78l-2-1c1.65-2.91 2.83-3.93 5.94-5.25 7.63-1.81 15.72-1.42 23.06 1.25"/><path fill="#e8be96" d="M193 108c0 3.83-.63 4.98-3 8-7.43 5.09-14.44 7.34-23.38 7.12-.36 0-.36 0-2.23-.02-1.79-.03-3.59-.06-5.39-.1v-1c.45-.01.45-.01 2.75-.08 13.1-.61 22.11-4.25 31.25-13.92"/><path fill="#c15b0c" d="M282.137 61.61c1.17.05 2.34.09 3.55.14.59.02.59.02 3.57.11.46.02.46.02 2.74.14l-1 9h-1v-8c-1.48.17-1.48.17-9 1l3 2-1 5-6-2-1 2c-.23-2.83-.2-4.6 1.1-7.16 1.9-1.84 1.9-1.84 5.04-2.23"/><path fill="#fae3dc" d="M409 61l10 1v3h3v2h2l1 6h-3c-1.61-1.64-1.61-1.64-3.31-3.81-2.9-3.49-5.39-5.51-9.69-7.19Z"/><path fill="#ffe9df" d="M303 47h42l-1 4h-2l-2 4c-.17-.66-.17-.66-1-4h2v-3h-38Z"/><path fill="#fee3dc" d="M464.438 68.813c.95-.01 1.89-.03 2.87-.04 2.74.23 4.36.83 6.69 2.23-3.61 1.13-6.98 1.1-10.75 1.06l-3.54-.03-2.71-.03-2 4-2-1-2 4-1-2c1.25-3.73 2.85-4.75 6-7 3.05-1.02 5.24-1.17 8.44-1.19"/><path fill="#c37634" d="M241 61c2.31-.03 4.62-.05 6.94-.06 1.29-.01 2.57-.03 3.9-.04C255 61 255 61 256 62c.23 1.51.41 3.04.56 4.56.04.42.04.42.26 2.51.06.63.12 1.27.18 1.93h-2l-1-9h-12l-1 4-3 1-.15 1.93c-.07.83-.15 1.66-.23 2.51-.03.41-.03.41-.21 2.49-.13.69-.27 1.37-.41 2.07-.33.16-.33.16-2 1 .12-1.42.24-2.83.38-4.25.06-.79.13-1.58.21-2.39.43-2.45 1.2-4.21 2.41-6.36h2Z"/><path fill="#f1cfb3" d="M282.012 57.707l2.29.03c.79.02 1.58.05 2.39.08.39 0 .39 0 2.41.04 1.97.03 3.93.09 5.9.14.76 3.41 1.11 5.65 0 9h-2l1-7c-2.64.17-2.64.17-16 1l-2 5h-1c-.37-4.52-.37-4.52 1.26-6.65 2.11-1.64 3.11-1.7 5.75-1.64"/><path fill="#c37029" d="M248 84c.82.17.82.17 5 1v13h2c1.35 2.71 1.07 5.01 1 8h2l-1 6c-1.85-2.78-2.35-3.99-2.94-7.12-.83-4.04-1.98-7.84-3.33-11.73-1.03-3.02-1.88-6.08-2.73-9.15"/><path fill="#f4dabf" d="M190 68h5v5h2c1.72 5.23 2.31 9.76 2.25 15.25.01.71.02 1.41.02 2.14-.01 3.75-.14 5.42-2.27 8.61.02-.83.05-1.67.07-2.53.18-11.25-1.12-18.87-7.07-28.47"/><path fill="#f7cdc2" d="M359 37h1v13h-2v5h-3l-1 3h-2l-1 4-4 1c1.08-1.73 2.16-3.46 3.25-5.19.6-.96 1.21-1.92 1.83-2.92C354 52 354 52 356.19 49.47c2.05-2.79 2.38-4.37 2.56-7.78.06-.89.11-1.77.17-2.68.03-.66.05-1.33.08-2.01"/><path fill="#f86239" d="M370 94c1.88.62 1.88.62 4 2 2.08 4.35 2.11 7.35 1 12h-3c-2.63-3.95-3.41-7.73-2.56-12.44.18-.51.37-1.03.56-1.56"/><path fill="#f96a43" d="M525 61q2.94-.045 5.88-.06c1.09-.01 2.18-.03 3.3-.04C537 61 537 61 539 62v3h-16Z"/><path fill="#fbf2e9" d="M275 56c6.74-.11 13.3.3 20 1v1l-3.65.15c-1.57.07-3.15.15-4.73.23l-2.4.09c-5.99.3-5.99.3-8.22 2.53-.35 2.33-.68 4.66-1 7-1.06 2.94-1.06 2.94-2 5h-1c.11-1.9.24-3.79.38-5.69.06-1.05.13-2.11.21-3.2.4-3.02 1.15-5.35 2.41-8.11"/><path fill="#bd6b23" d="M195 97c1.37 4.1.74 7.16-1 11-3.29 4.19-6.54 8.13-12 9v-3h3v-3h3v-3h3v-2h2c.14-1.3.29-2.6.44-3.94.44-3.94.44-3.94 1.56-5.06"/><path fill="#fbdad0" d="M552 66h6c.12.97.25 1.94.38 2.94.2 1.01.41 2.02.62 3.06l2 1v20h-1c-.09-1.13-.17-2.27-.26-3.44-.75-8.4-1.33-14.76-6.74-21.56Z"/><path fill="#f1d8b8" d="M159 57c2.9-.05 5.79-.09 8.69-.12l2.47-.06c4.35-.03 7.95-.03 11.84 2.18 1.81 2.62 1.81 2.62 3 5-.52-.29-1.03-.58-1.56-.88-5.66-2.61-11.19-3.42-17.38-3.74l-2.07-.12c-1.66-.1-3.33-.18-4.99-.26Z"/><path fill="#f36a44" d="M341 54h2v4l5-1-1 3h-3v5c-1.88 1.06-1.88 1.06-4 2l-2-1v-3h2l-.06-3.38C340 56 340 56 341 54"/><path fill="#f9e8d3" d="M208 85c4.05 6.08 8.02 14.83 6.55 22.3-.18.56-.36 1.12-.55 1.7l-3-2c-.44-2.79-.44-2.79-.56-6.06-.13-3.29-.13-3.29-.44-5.94l-2-1Z"/><path fill="#e18266" d="M506 106h2c1.35 1.65 2.69 3.32 4 5l2 1v2h4v3h3v3c-9.9-2.99-9.9-2.99-12.2-7.2-1-2.24-1.94-4.5-2.8-6.8"/><path fill="#fef1ed" d="M453 75l2 1c-.48.8-.97 1.6-1.47 2.43-1.89 4.4-2 7.96-2.04 12.69l-.06 2.59c-.05 2.72-.08 5.44-.12 8.17-.03 1.85-.07 3.7-.1 5.55-.09 4.52-.15 9.05-.21 13.57h-1c-.07-5.91-.13-11.82-.16-17.72-.02-2.01-.04-4.02-.07-6.03q-.045-4.335-.06-8.67c-.02-.9-.03-1.8-.05-2.72 0-6.28 0-6.28 1.86-9.46.49-.46.98-.92 1.48-1.4"/><path fill="#fbe6d1" d="M234 71h2c-.62 2.61-1.24 5.21-1.88 7.81-.17.74-.34 1.48-.52 2.24-.84 3.45-1.61 5.97-3.6 8.95l-3-1v-4h4c-.03-.59-.07-1.18-.11-1.79-.16-4.89-.19-8.28 3.11-12.21"/><path fill="#f66a42" d="M333 67c2.77.01 4.99 2.23 5 4a5 5 0 0 1-5 5c-2.21 0-3.99-1.79-4-5a4.01 4.01 0 0 1 4-4"/><path fill="#f7f3ed" d="M296 60h1l-1 14h-2l-1 4h-3c.55-3.95 1.39-7.35 3-11h2Z"/><path fill="#c27f49" d="M133 80h1v18h2l2 10c-6.49-6.49-6.11-13.51-6.13-22.29C132 83 132 83 133 80"/><path fill="#f6633b" d="M513 71c.44 5.33.44 5.33 0 8-2.41 2.03-3.83 3-7 3-.36-4.25.44-6.59 3-10 3-1 3-1 4-1"/><path fill="#ed714c" d="M544.625 65.875l3.38.12v3h-2c.35.77.7 1.53 1.06 2.32.94 2.68.94 2.68-.06 5.68v-2c-.58-.22-1.16-.45-1.76-.68-2.81-1.65-4.33-3.71-6.24-6.32 2-2 2-2 5.62-2.12"/><path fill="#f6d1c3" d="M524 58c21.29-.47 21.29-.47 28 4l-1 4-3-2v-2c-8.4-1.92-16.4-2.23-25-2Z"/><path fill="#df785b" d="M350 53h3c-1.43 4.06-3.4 7.22-5.94 10.69l-2.09 2.88C343 69 343 69 340 71v-3h2v-3h2v-5l3-1 1-3h2Z"/><path fill="#f8d5c4" d="M585 30v3c-.51-.16-1.03-.32-1.56-.49-3.2-.67-6.24-.64-9.5-.63-1.23-.01-2.46-.01-3.73-.01C567 32 567 32 564 33l-1-3c7.88-2.63 14.12-2.63 22 0"/><path fill="#f0724e" d="M412 106l3 4 3-2h2l1-2-1 5-6 1v3h-3l-1 2q-.075-2.19-.12-4.38c-.02-.4-.02-.4-.08-2.46.2-2.16.2-2.16 2.2-4.16"/><path fill="#fceddb" d="M199 87h1v13h-2l.06 3.31C198 107 198 107 197 110c-2.56 1.19-2.56 1.19-5 2 .21-.53.21-.53 1.28-3.18 2.86-7.29 5.44-13.9 5.72-21.82"/><path fill="#e3957d" d="M426 81h1c.96 19.53.96 19.53-5 28l-1-4h2l-.12-2.62c.12-3.38.12-3.38 1.06-6 1.58-5.03 1.74-10.14 2.06-15.38"/><path fill="#fcf7f0" d="M347 63h3v5h-2v2h-2v2h-3v4l-3 1c1.4-5.08 3.55-9.97 7-14"/><path fill="#f7f2f2" d="M501 104l1 2h3c1.8 3.83 2.2 6.78 2 11-.82-.33-.82-.33-5-2Z"/><path fill="#f8d9d0" d="M406 57c1.44 2.06 1.44 2.06 2 4-.32-.08-.32-.08-1.95-.5-3.98-.65-7.84-.61-11.86-.56-.79 0-1.58.01-2.39.01-1.93.01-3.87.03-5.8.05l1-2c6.19-1.67 12.79-2.89 19-1"/><path fill="#f46d43" d="M581 37c.83.16.83.16 5 1l1 12-3 2c-.13-.83-.27-1.66-.4-2.52-.18-1.09-.36-2.17-.54-3.29-.17-1.08-.35-2.16-.52-3.27C582 40 582 40 581 37"/><path fill="#f4d8bd" d="M240 108h1c.33 6.36.1 7.8-3 14h-18v-1h16c.47-1.59.95-3.18 1.44-4.81.82-2.75 1.65-5.47 2.56-8.19"/><path fill="#cb6109" d="M143 103c1.28 3.85 1.07 6.95 1 11l2 1h-3c-5.51-5.77-5.51-5.77-6-10Z"/><path fill="#ba6d27" d="M175 117h7c-1.45 2.89-3.68 3.35-6.61 4.39-5.92 1.5-10.94 1.34-16.39-1.39 2.64-.17 2.64-.17 16-1Z"/><path fill="#c37133" d="M275 66h1v14h-2l-2 9-2-1c.46-4.64.92-7.84 3-12 .43-1.74.8-3.49 1.12-5.25.09-.45.09-.45.51-2.7.12-.68.25-1.35.37-2.05"/><path fill="#e27859" d="M554 69c2.54 1.9 3.01 3.02 3.73 6.18.15 1.22.3 2.44.46 3.7.16 1.21.31 2.42.48 3.67.27 2.85.4 5.59.33 8.45l-3-1V75h-2Z"/><path fill="#de9177" d="M559 49h2v3h2l1 3 3 2v2h15c-4.68 2.34-7.88 2.59-13 2-3.18-1.36-4.54-2.23-6.31-5.19-.23-.6-.46-1.19-.69-1.81h-2Z"/><path fill="#fde9e6" d="M561 33l3 1c-.32.39-.32.39-1.94 2.38-3.08 3.92-3.28 6.29-3.62 11.24-.09 1.19-.17 2.38-.26 3.61-.06.91-.12 1.83-.18 2.77l-2-1c-.57-12.82-.57-12.82 3-19Z"/><path fill="#f9ebdc" d="M215 109c3.28 3.28 3.75 7.58 5 12l16 1v1q-4.155.075-8.31.12l-2.38.06c-.76 0-1.52.01-2.3.02-.35 0-.35 0-2.11.03C219 123 219 123 216 121c-.51-2.82-.51-2.82-.69-6.12-.06-1.1-.13-2.2-.2-3.33-.02-.42-.02-.42-.11-2.55"/><path fill="#b76015" d="M257 109h2c1.13 3.33 2.15 6.59 3 10h10v-2h3v3h-15c-3-6.5-3-6.5-3-11"/><path fill="#fcd7ce" d="M365 99c3.1 3.1 4.6 7.1 5.5 11.38.17.53.33 1.07.5 1.62l3 1 1 3h-2v-2l-5-1-1-6h-2Z"/><path fill="#c37837" d="M245 86l1 2c-.68 2.05-1.37 4.1-2.1 6.14-1.73 5.51-2.76 11.2-3.9 16.86-1.45-4.72-.52-8.83.25-13.62.06-.44.06-.44.37-2.65.13-.83.26-1.66.4-2.52.11-.76.23-1.52.35-2.3C242 88 242 88 245 86"/><path fill="#fbf6f1" d="M561 73h1c.14 1.13.29 2.27.44 3.44C563 80 563 80 564 81c.17 1.96.17 1.96.19 4.38.01.79.03 1.58.04 2.39C564 90 564 90 562 93c-1-1-1-1-1.11-2.86 0-.79.01-1.58.01-2.39.01-.86.01-1.71.01-2.59l.03-2.72c0-.9.01-1.81.01-2.73.01-2.24.03-4.47.05-6.71"/><path fill="#c47128" d="M210 76v8l3 1-1 3a93 93 0 0 0 0 5c-2.66-2.66-3.18-5.59-4.12-9.12-.1-.33-.1-.33-.56-2L206 77c3-1 3-1 4-1"/><path fill="#f7e7d4" d="M115.688 30.75c.49.09.49.09 2.95.55.78.23 1.56.46 2.36.7l1 2h-18c3.85-3.85 6.37-4.3 11.69-3.25"/><path fill="#e58b6f" d="M413 101l1 2q-.705 1.14-1.44 2.31C411 108 411 108 411 113h-11l4-2c4.78-3.56 4.78-3.56 6-6h2Z"/><path fill="#f9dacd" d="M366 76c1.12 3.75 1.12 3.75 0 6-.23 2.71-.42 5.41-.56 8.12-.05.76-.09 1.51-.13 2.29-.11 1.86-.21 3.73-.31 5.59-2.5-4.5-3.22-8.87-3-14 1.03-3 2.33-5.27 4-8"/><path fill="#fce7e2" d="M383.688 56.75c1.09.08 2.19.16 3.31.25-1 3-1 3-3.5 4.39-1.01.43-2.02.86-3.06 1.3-1.01.43-2.02.87-3.07 1.32-.78.33-1.56.65-2.37.99 3.95-7.93 3.95-7.93 8.69-8.25"/><path fill="#fcdace" d="M304 99l3 1q-.735.885-1.5 1.8c-4.92 6.37-6.61 11.16-6.5 19.2h-1c-.03-1.94-.05-3.87-.06-5.81-.01-1.08-.03-2.16-.04-3.27.1-2.92.1-2.92 1.1-5.92h2v-4c1.5-1.75 1.5-1.75 3-3"/><path fill="#df7d5e" d="M321 94h2c-1.35 3.84-3.08 6.65-5.62 9.81l-1.92 2.4c-.48.59-.96 1.18-1.46 1.79l-1-3h2v-6h3l1-3h2Z"/><path fill="#ffe9e2" d="M474 72c3.88 1.75 3.88 1.75 5 4 .09 1.96.11 3.92.1 5.88-.01 1.17-.01 2.34-.01 3.54l-.03 3.7c0 1.24-.01 2.47-.01 3.74-.01 3.04-.03 6.09-.05 9.14h-1c-.01-.71-.03-1.41-.04-2.14-.08-3.2-.18-6.41-.27-9.61-.03-1.11-.05-2.22-.07-3.37-.04-1.07-.07-2.14-.11-3.24-.02-.98-.05-1.97-.08-2.98-.49-3.02-1.51-4.34-3.43-6.66Z"/><path fill="#f9dcd0" d="M339 78l1 3c-.38.2-.38.2-2.31 1.19-2.95 1.99-3.9 3.81-5.69 6.81h-3v3h-3c1.2-2.49 2.45-4.68 4-7h3c.25-.64.5-1.28.75-1.94C335 81 335 81 337.12 80.25c.62-.08 1.24-.17 1.88-.25Z"/><path fill="#ba5d10" d="M142 70c0 3.42-.81 5.08-2.31 8.12-.43.89-.86 1.78-1.3 2.7C137 83 137 83 134 84c.88-6.75.88-6.75 2-9h2v-2c2-1.62 2-1.62 4-3"/><path fill="#e2836b" d="M408 72l4 1v2h4v21h-1c-.02-.51-.02-.51-.11-3.11-.07-1.36-.14-2.72-.2-4.08-.03-.67-.05-1.34-.07-2.04-.24-4.42-1.14-7.13-3.62-10.77v-2l-3-1Z"/><path fill="#fcd4c7" d="M520 108c4.88.88 4.88.88 6 2 2.53.24 5.03.42 7.56.56.71.05 1.42.09 2.16.13 1.76.11 3.52.21 5.28.31-4.47 2.98-8.87 2.52-14.07 1.65-3.69-.92-4.76-1.4-6.93-4.65"/><path fill="#f9ebd9" d="M131 83h1v16c-3-3-3-3-3.36-5.12.01-.77.03-1.53.05-2.32 0-.76.01-1.52.01-2.31.33-2.45 1.08-4.12 2.3-6.25"/><path fill="#e08d74" d="M580 31c4.32 1.11 6.62 3.12 9.06 6.71 1.87 4.56 1.3 9.47.94 14.29h-1V41l-3-1-1-3c-.85-.49-1.69-.99-2.56-1.5-.81-.49-1.61-.99-2.44-1.5Z"/><path fill="#df765a" d="M419 111c-1.52 4.25-4.1 5.9-8 8-2.7.59-5.23.81-8 1 2.57-2.57 4.48-2.54 8-3v-2h3v-3c3-1 3-1 5-1"/><path fill="#c55a05" d="M85 81l1 4H57v-1l2.25-.06c3.35-.1 6.71-.2 10.06-.32l3.54-.09 3.39-.12 3.12-.09C82 83 82 83 85 81"/><path fill="#e06e4f" d="M331 79l2 3c-1.45 2.01-2.91 4-4.38 6-.41.57-.82 1.14-1.24 1.73-1.08 1.46-2.23 2.87-3.38 4.27h-2c.25-1.88.25-1.88 1-4 2.06-1.25 2.06-1.25 4-2v-3h2v-3h2Z"/><path fill="#fdf6e8" d="M96 37c.33.16.33.16 2 1 1.3 4.29 1.08 8.57 1 13l-3 1Z"/><path fill="#f9dfd6" d="M585 33h6v15h-1c-.08-1.22-.16-2.43-.25-3.69-.49-4.12-1.93-6.22-4.75-9.31Z"/><path fill="#e9bf97" d="M286 86c2.01 6.32-.25 12.88-3.12 18.62-.62 1.12-1.24 2.23-1.88 3.38-1.08-3.24-.93-5.01.25-8.19.28-.77.56-1.55.85-2.35.3-.81.59-1.62.9-2.46.57-1.69 1.13-3.37 1.69-5.06.43-1.32.87-2.63 1.31-3.94"/><path fill="#c67c3e" d="M147 63c0 3 0 3-1.46 4.82-.63.62-1.26 1.23-1.92 1.87-.62.62-1.25 1.24-1.89 1.88C140 73 140 73 138 73v2h-2c1.35-4.41 3.19-6.43 7-9h2v-2Z"/><path fill="#f7cbbf" d="M501 83h1l.15 3c.37 6.86.83 13.4 2.85 20h-3c-1.23-2.45-1.11-4.05-1.1-6.79.01-.94.01-1.88.01-2.85l.03-2.98c0-1 .01-1.99.01-3.01.01-2.46.03-4.91.05-7.37"/><path fill="#c37630" d="M221 70h1c.48 2.21.96 4.42 1.44 6.62.13.62.13.62.81 3.73.66 3.21 1.24 6.41 1.75 9.65h-3c-1.26-6.74-2.26-13.13-2-20"/><path fill="#f0603e" d="M376 67l2 1-1 5h-2v2l4-1v2c-.64.1-1.28.21-1.94.31-.34.12-.34.12-2.06.69l-1 3c-1.76-5.2-1.76-5.2-2-8 1.88-3 1.88-3 4-5"/><path fill="#ec6945" d="M548 67l6 2-1 4-2-1v-2h-2l1 7h-2l-2-8h2Z"/><path fill="#ed6c41" d="M573 55h9l-3 1v3l-7 1c0-3 0-3 1-5"/><path fill="#f8f2ed" d="M187 116l2 1c-.38 2.44-.38 2.44-1 5-2.71 1.35-5.01 1.07-8 1 1.44-3.81 3.35-5.27 7-7"/><path fill="#e48b70" d="M381 106c.33.17.33.17 2 1v2l2.88.94C389 111 389 111 391 112c1.54.22 3.08.41 4.62.56.41.04.41.04 2.48.26.63.06 1.25.12 1.9.18v1c-1.77.22-3.54.43-5.31.62l-2.99.36c-2.7.02-2.7.02-5.7-1.98v-2l-4-1Z"/><path fill="#f9d3c5" d="M325 92c0 3.61-.96 6.56-2 10h-3v2c-1.63 1.38-3.29 2.72-5 4 1.44-4.15 3.5-7.3 6.12-10.81.73-.98 1.45-1.95 2.2-2.96.28-.37.28-.37 1.68-2.23"/><path fill="#ee653b" d="M563 40c1.5 1 1.5 1 3 3 .27 2.72.13 5.26 0 8l-4-1c-1.16-4.05-.84-6.22 1-10"/><path fill="#e08265" d="M319 83c1.12 3.75 1.12 3.75 0 6h-2l-1 5-4 1c4.62-9.62 4.62-9.62 7-12"/><path fill="#f6d2b2" d="M174 76c2.98 1.69 3.94 2.85 5.25 6.06 1.12 4.59.92 9.25.75 13.94h-1v-9h-2v-5h-2Z"/><path fill="#fad3c4" d="M438 59h11v3h5c-1.28 1.71-2.62 3.37-4 5h-2v-7h-10Z"/><path fill="#f8eadc" d="M182 59c2.88.19 2.88.19 6 1 1.44 2.38 1.44 2.38 2 5l-1 3c-2.96-2.81-5.44-5.18-7-9"/><path fill="#fbcbbf" d="M411 76c3 2 3 2 4 5 .08 1.41.11 2.82.1 4.23-.01.8-.01 1.61-.01 2.43-.01.42-.01.42-.03 2.53 0 .84-.01 1.69-.01 2.56-.01 2.08-.03 4.17-.05 6.25h-1c-.02-.51-.02-.51-.15-3.07-.07-1.35-.15-2.7-.23-4.05l-.09-2.02c-.25-4.27-1.07-7.85-2.53-11.86Z"/><path fill="#e38875" d="M380 63c-1.56 3.83-3.91 6.28-7 9-2.31.81-2.31.81-4 1 1.37-3.15 2.88-5.05 5.5-7.25.61-.52 1.22-1.04 1.84-1.58C378 63 378 63 380 63"/><path fill="#e08770" d="M569 31v2h-3v4c-4.22 4-4.22 4-7 4 1.28-4.49 4.77-10 10-10"/><path fill="#feefeb" d="M549 120l-1 3c-4.35 1.95-8.15 2.22-12.88 2.12-1.15-.01-2.3-.03-3.49-.05-.87-.02-1.73-.05-2.63-.07v-1c.8-.04 1.59-.07 2.41-.11 6.07-.38 12.17-3.89 17.59-3.89"/><path fill="#c76e25" d="M238 111c1 2 1 2 .06 5.12L237 119l-1-2h-2v2h-7c.58-.27 1.16-.54 1.75-.81 2.25-1.19 2.25-1.19 4.37-2.81C235 114 235 114 237 114Z"/><path fill="#db846b" d="M480 62c2 0 2 0 3.47 1.32 3.36 3.81 5.27 6.41 5.53 11.68-4.33-3.85-6.66-7.72-9-13"/><path fill="#fce1d7" d="M415 117c-.92 3.17-1.38 4.65-4.31 6.31-2.69.69-4.93.85-7.69.69.62-.08 1.24-.17 1.88-.25 2.8-.99 2.86-2.15 4.12-4.75 2.17-1.36 3.44-2 6-2"/><path fill="#fdefe8" d="M575 40h4c1.63 3.25 1.11 6.39 1 10-1 1-1 1-4.56 1.06L572 51v-1h5v-3h2a98 98 0 0 0-2-6Z"/><path fill="#f6693c" d="M552 105h4v4h-2v2h-4c.88-4.88.88-4.88 2-6"/><path fill="#c98245" d="M152 76l3 1c-.23.47-.23.47-1.38 2.88-1.97 4.54-2.79 9.26-3.62 14.12h-1c-.23-13.15-.23-13.15 3-18"/><path fill="#e07f5e" d="M531.188 65.75c1.05-.01 2.09-.01 3.17-.02 2.64.27 2.64.27 4.64 2.27-.91-.02-1.83-.05-2.77-.07l-3.6-.06c-1.19-.02-2.37-.04-3.59-.07-3.04.2-3.04.2-5.04 2.2h-4v-2c3.86-1.8 6.94-2.27 11.19-2.25"/><path fill="#fbd3c6" d="M558 41h1l1 13h2l2 4c-2.44-.38-2.44-.38-5-1-1.5-3-1.09-5.79-1.06-9.12.01-1.29.02-2.57.02-3.89.02-.99.03-1.97.04-2.99"/><path fill="#fae2cc" d="M143 115c.24.17.24.17 1.47 1.02 4.8 3.2 8.87 4.87 14.53 5.98v1c-1.63-.14-3.25-.29-4.88-.44-.9-.08-1.8-.16-2.74-.24C149 122 149 122 147 121v-2h-3Z"/><path fill="#e37e64" d="M370 109h2v2l7 1 1 4c-2.19.38-2.19.38-5 0-2.04-1.83-3.39-3.74-5-6Z"/><path fill="#fae7cf" d="M289 78c1.34 3.77.72 6.86.06 10.75-.19 1.17-.39 2.34-.59 3.55-.15.89-.31 1.78-.47 2.7l-3 1c.65-4.19 1.51-8.26 2.56-12.38.27-1.05.54-2.11.82-3.21Z"/><path fill="#f1c696" d="M225 84c.33.17.33.17 2 1 .62 2.06.62 2.06 1 4h2l2-2v4h-2l-1 5c-1.9-2.85-2.46-4.42-3.12-7.69-.17-.81-.34-1.61-.51-2.45-.12-.61-.25-1.23-.37-1.86"/><path fill="#ea704d" d="M525 61v2l-2.94.88C519 65 519 65 518 67h-3v2h-3v-3c.78-.29 1.57-.58 2.38-.88C517 64 517 64 519 62c2.1-.66 3.8-1 6-1"/><path fill="#fcf2e1" d="M154 56h17v1h-12v2h-6Z"/><path fill="#e3825f" d="M565 39l4 1-1 1c-.41 8.38-.41 8.38 2 12l-4-1Z"/><path fill="#f9f1f0" d="M583 26v4c-.66-.16-1.32-.33-2-.5-4.2-.7-9.1-1.45-13 .5l1-3c1.96-.17 3.92-.33 5.88-.5.54-.05.54-.05 3.3-.28 1.6-.13 3.21-.22 4.82-.22"/><path fill="#e4886f" d="M548 105l1 4c-2.87 2.7-4.31 3.95-8.31 4.25-.89-.08-1.78-.16-2.69-.25 3-2 3-2 5.56-3.44C546 108 546 108 548 105"/><path fill="#f0caa9" d="M208 85c5.27 7.9 5.27 7.9 4.69 12.44q-.345.765-.69 1.56l-.88-1.94C210 95 210 95 208 94Z"/><path fill="#ec643f" d="M322 81c.62 1.81.62 1.81 1 4l-2 3 6-2v2c-3 2-3 2-7 2-.12-3.38-.12-3.38 0-7Z"/><path fill="#bd5e16" d="M147 85l3 1v12l-1-2h-2Z"/><path fill="#e06b4f" d="M422 77l1 3 3 1v12h-1c-.06-.53-.06-.53-.38-3.19-.54-3.3-1.38-5.75-2.62-8.81Z"/><path fill="#fbf8ef" d="M202 80c2.44.81 2.44.81 5 2 .96 2.88 1.11 4.7 1.06 7.69-.01.81-.02 1.61-.02 2.45-.02.61-.03 1.23-.04 1.86-1.98-3.64-2.53-6.88-3-11h-2Z"/><path fill="#fde6e1" d="M371 65l4 1c-.41.47-.82.94-1.24 1.43l-1.64 1.88c-.53.62-1.06 1.23-1.61 1.87C369 73 369 73 367 76l1-8h2Z"/><path fill="#fedecf" d="M338 47h7l-1 4h-2l-2 4-1-4h2v-3Z"/><path fill="#d6674b" d="M301 111c1.35 2.71 1.07 5.01 1 8h5v1h-8v-8Z"/><path fill="#fdf3ef" d="M402 108l3 1c-2 2-2 2-5.48 2.2-1.38-.02-2.76-.04-4.14-.08-.71 0-1.42-.01-2.15-.02-1.74-.03-3.49-.06-5.23-.1l-1-2c1 .01 2 .02 3.03.04 1.29 0 2.58.01 3.91.02.64.01.64.01 3.9.04C401 109 401 109 402 108"/><path fill="#bb6925" d="M191 70c2.97 2.45 3.56 4.45 4.19 8.19.16.9.31 1.8.48 2.73.05.34.05.34.33 2.08l-3 1c-.06-.59-.12-1.18-.18-1.79-.44-4.12-.91-8.17-1.82-12.21"/><path fill="#f9d2c2" d="M458 70l-2 6-3-1-2 4-1-2c1.23-3.7 3.79-7 8-7"/><path fill="#e07a5a" d="M516 70l4 1c-.6.52-1.2 1.03-1.81 1.56-2.7 3.01-3.75 5.69-5.19 9.44-1-2-1-2-.19-5.44C514 73 514 73 516 70"/><path fill="#c05d0c" d="M157 62c-2.77 3.81-6.63 4.07-11 5 .56-1.88.56-1.88 2-4 6.29-2.36 6.29-2.36 9-1"/><path fill="#eb653d" d="M303 107h2v3h-2v7h2v2h-3c-1.12-4.69-.81-7.54 1-12"/><path fill="#c68647" d="M179 96h1v6l-1.94.88C176 104 176 104 175 106l-3-1c.78-.74 1.57-1.48 2.38-2.25 2.19-2.29 3.45-3.87 4.62-6.75"/><path fill="#c76312" d="M269 91c1.11 3.33.84 5.62 0 9h-5l1-4 3 1Z"/><path fill="#f95d33" d="M325 81h2c.19 2.38.19 2.38 0 5-3 2-3 2-6 2 1.07-2.92 1.78-4.78 4-7"/><path fill="#f0cba8" d="M261 79c1.95 1.14 1.95 1.14 4 3 .61 2.7.61 2.7.75 5.69.06.99.11 1.99.17 3.01.03.76.05 1.52.08 2.3-2.01-3.01-2.73-5.21-3.62-8.69-.27-.99-.53-1.99-.79-3.01-.1-.38-.1-.38-.59-2.3"/><path fill="#fcf2de" d="M156 76l4 1-3 1-1 5h-2l-1 3c.75-6.62.75-6.62 3-10"/><path fill="#dd755b" d="M337 71l3 1c-.97 1.5-1.96 3-2.94 4.5-.54.84-1.09 1.67-1.65 2.53-.47.65-.93 1.3-1.41 1.97h-1c-.19-2.38-.19-2.38 0-5l3-2Z"/><path fill="#e07c61" d="M328 72l2 1c-.31 1.94-.31 1.94-1 4l-3 1a139 139 0 0 0-5 5c0-3.55.68-4.42 3-7l3-1Z"/><path fill="#f46840" d="M416 73l6 4c-.33.17-.33.17-2 1l-2-1v6l-2-1Z"/><path fill="#fae6d0" d="M293 67h1l-1 11h-3c.55-3.95 1.39-7.35 3-11"/><path fill="#feede0" d="M330 63l3 2c-1.27 2.04-2.61 4.04-4 6h-2c-.37-4.55-.37-4.55 1.5-6.81.5-.39.99-.79 1.5-1.19"/><path fill="#fbd6ce" d="M549 100c.99.17.99.17 6 1v1h-5c-.27.6-.54 1.2-.81 1.81-1.17 2.16-2.38 3.55-4.19 5.19l1-6h3Z"/><path fill="#c26109" d="M180 96h2c-.26 4.46-.58 6.52-3.56 9.94-.81.68-1.61 1.36-2.44 2.06l-1-2c.64-.54 1.28-1.07 1.94-1.62 2.45-2.82 2.73-4.72 3.06-8.38"/><path fill="#df876e" d="M511 66l1 4-5 2v3h-2c1.31-3.94 2.92-6.23 6-9"/><path fill="#f9d3c3" d="M588 52h2c-1.12 2.97-2.22 5.33-4 8h-4c0-2 0-2 1.88-4.12C586 54 586 54 588 54Z"/><path fill="#b96d2b" d="M281 99c1 2 1 2 .44 4.16-.29.82-.58 1.63-.88 2.46-.28.82-.57 1.64-.87 2.48-.23.63-.45 1.25-.69 1.9h-1c-.08-1.46-.14-2.92-.19-4.38-.03-.81-.07-1.62-.1-2.46.09-.71.19-1.42.29-2.16Z"/><path fill="#e69c86" d="M333 64l1 2c-1.27 2.04-2.61 4.04-4 6h-2l-1 4h-2l2-5h2c.29-.6.58-1.2.88-1.81C331 67 331 67 333 64"/><path fill="#c58852" d="M150 119c1.42.12 2.83.24 4.25.38.79.06 1.58.13 2.39.21 2.45.43 4.21 1.2 6.36 2.41-4.92.17-8.5.25-13-2Z"/><path fill="#cb8445" d="M150 95c2.01 2.01 2.9 3.59 4.12 6.12.36.73.71 1.45 1.08 2.2.13.28.13.28.8 1.68-1.92-.36-1.92-.36-4-1-1.78-3.3-2-5.18-2-9"/><path fill="#fdf5ec" d="M312 88l1 3h-3c.06.76.12 1.53.19 2.31C310 96 310 96 308.5 97.81c-.5.39-.99.79-1.5 1.19v-5h2v-5Z"/><path fill="#b7641c" d="M282 90h2l-1 9h-2c-.1-6.15-.1-6.15 0-8Z"/><path fill="#c66312" d="M250 82v2c-2.27 1.5-4.57 2.78-7 4l-1-5c2.89-.83 4.89-1 8-1"/><path fill="#fbead6" d="M260 72l3 1c.73 2.07.73 2.07 1.19 4.56.16.83.31 1.66.48 2.51.11.63.22 1.27.33 1.93-1.94-1.06-1.94-1.06-4-3-.75-3.69-.75-3.69-1-7"/><path fill="#fdf3f0" d="M470 72h4c2.25 3 2.25 3 4 6l-1 2c-5.88-4.62-5.88-4.62-7-8"/><path fill="#c07330" d="M182 63c1.11.6 2.23 1.2 3.38 1.81.31.17.31.17 1.89 1.02C189 67 189 67 191 70c-.99-.17-.99-.17-6-1l-1-3-2-1Z"/><path fill="#df7b60" d="M411 65c3.38.69 3.38.69 7 2 1.44 2.62 1.44 2.62 2 5h-3v-3c-.8-.29-1.61-.58-2.44-.88C412 67 412 67 411 65"/><path fill="#e29079" d="M520 60l2 1c-3.88 3.61-3.88 3.61-6 5-2.38-.19-2.38-.19-4-1 2.69-2.25 4.65-3.88 8-5"/><path fill="#ec6f4b" d="M521 117c2.88-.19 2.88-.19 6 0l2 3h-8Z"/><path fill="#e58466" d="M513 101h2l4 7-5-1Z"/><path fill="#f3cea9" d="M155 103l7 1v2h6v1c-8.19.63-8.19.63-11.56-2-.24-.33-.24-.33-1.44-2"/><path fill="#d2833f" d="M226 90c2 3 2 3 3 5l2-4v7h-4Z"/><path fill="#fbf3eb" d="M236 65c1 3 1 3 0 6-1.44 1.56-1.44 1.56-3 3l-2 2v-5l3-1c1.19-2.56 1.19-2.56 2-5"/><path fill="#e97c64" d="M345 46h2c-.31 3.38-.31 3.38-1 7-.5.33-.5.33-3 2l-2-2c.24-.21.24-.21 1.44-1.25 1.72-1.93 2.13-3.23 2.56-5.75"/><path fill="#f0d1b1" d="M193 108c0 3.62-.89 5.11-3 8h-3c1.44-3.37 3.33-5.51 6-8"/><path fill="#b7671b" d="M185 111h3c-.19 1.88-.19 1.88-1 4-2.56 1.25-2.56 1.25-5 2v-3h3Z"/><path fill="#ba6f2f" d="M138 108c1.88.19 1.88.19 4 1 1.12 2.5 1.12 2.5 2 5l2 1h-3c-5-5.47-5-5.47-5-7"/><path fill="#ea7a5d" d="M548 77h2c1.76 3.09 2 4.23 2 8h-3Z"/><path fill="#fae4e0" d="M552 66h6v5c-3.16-1.37-3.99-1.99-6-5"/><path fill="#e07958" d="M583 54h3c-.69 1.94-.69 1.94-2 4-2.62.75-2.62.75-5 1v-3h4Z"/><path fill="#f6cab8" d="M382 73l1 4h-2v2c-.33.17-.33.17-2 1l-2 3c.5-4.4 2.09-6.71 5-10"/><path fill="#faded2" d="M403 70c.82.17.82.17 5 1v4h-3v-2h-2Z"/><path fill="#e69278" d="M539 68h5l2 7c-1.17-.98-2.34-1.96-3.5-2.94-.65-.54-1.3-1.09-1.97-1.65-.5-.47-1.01-.93-1.53-1.41Z"/><path fill="#fef8ea" d="M259 65h3v8l-2-1c-.41-2.32-.74-4.66-1-7"/><path fill="#fde7e4" d="M347 63h3v4l-6 1c1.31-2.5 1.31-2.5 3-5"/><path fill="#bf5e12" d="M176 62c.99.16.99.16 6 1v2l2 1c-3.72.2-4.77.15-8-2Z"/><path fill="#fde2d7" d="M336 56l3 1c-.81 1.17-1.62 2.34-2.44 3.5-.45.65-.9 1.3-1.37 1.97-.39.5-.78 1.01-1.19 1.53h-1v-5h3Z"/><path fill="#b6601c" d="M175 117h7l-1 2c-2.65.59-5.29.74-8 1l2-1Z"/><path fill="#fc6b4a" d="M513 107c1.66 0 3 1.34 3 2 0 1.66-1.34 3-3 3-1.11 0-2-.89-2-3 0-1.11.89-2 2-2"/><path fill="#fcf5ea" d="M284 100h1c.37 5.54.37 5.54-1.5 7.88-.5.37-.99.74-1.5 1.12-.25-5.62-.25-5.62 2-9"/><path fill="#e49a7f" d="M311 94l1 2c-1.25 2.56-1.25 2.56-3 5l-3 1c1.19-3.38 2.28-5.65 5-8"/><path fill="#fcf0dc" d="M227 85h4l-1 5-3-1Z"/><path fill="#fbd8cd" d="M528 70c-3.44 2.3-5.94 2.54-10 3 2-3 2-3 3.88-3.75 2.32-.27 3.91.04 6.12.75"/><path fill="#e37658" d="M475 70c.82.17.82.17 5 1v7l-2-2v-4l-3-1Z"/><path fill="#f56340" d="M446 63v5l-1-2-5 1v-3c2.08-.55 3.84-1 6-1"/><path fill="#de947b" d="M457 60l2 1c-2.53 2.8-4.2 4.46-8 5 2.62-4.88 2.62-4.88 6-6"/><path fill="#e18169" d="M419 111c-1.37 3.16-1.99 3.99-5 6v-5c3-1 3-1 5-1"/><path fill="#f3c090" d="M247 84l2 1c-.56 3.27-1.5 4.83-4 7 .88-6.88.88-6.88 2-8"/><path fill="#f56744" d="M373 73c.99.17.99.17 6 1v2c-.64.1-1.28.21-1.94.31-.68.23-1.36.46-2.06.69l-1 3Z"/><path fill="#f0cdb2" d="M135 75l1 2-1 3h-2l-1 3v-7Z"/><path fill="#fbd0c2" d="M474 72c1.94.62 1.94.62 4 2 .75 3.12.75 3.12 1 6-2.8-2.53-4.46-4.2-5-8"/><path fill="#fcebe5" d="M422 67h2l1 6h-3c-1.12-3.75-1.12-3.75 0-6"/><path fill="#fddfd8" d="M561 33l3 1c-1.93 2.44-3.8 4.8-6 7 .26-2.34.59-4.68 1-7Z"/></svg>